<?xml version="1.0" standalone="no"?>
<!DOCTYPE svg PUBLIC "-//W3C//DTD SVG 20010904//EN"
 "http://www.w3.org/TR/2001/REC-SVG-20010904/DTD/svg10.dtd">
<svg version="1.0" xmlns="http://www.w3.org/2000/svg"
 width="2880.000000pt" height="1256.000000pt" viewBox="0 0 2880.000000 1256.000000"
 preserveAspectRatio="xMidYMid meet">

<g transform="translate(0.000000,1256.000000) scale(0.100000,-0.100000)"
fill="#000000" stroke="none">
<path d="M2368 12553 c7 -3 16 -2 19 1 4 3 -2 6 -13 5 -11 0 -14 -3 -6 -6z"/>
<path d="M2480 12550 c66 -5 75 -7 40 -10 -35 -3 -26 -5 40 -10 l85 -6 -125
-4 -125 -4 85 -6 c66 -5 75 -7 40 -10 -35 -3 -26 -5 40 -10 76 -6 67 -7 -80
-10 -147 -3 -156 -4 -80 -10 66 -5 75 -7 40 -10 -35 -3 -26 -5 40 -10 l85 -6
-125 -4 -125 -4 85 -6 c66 -5 75 -7 40 -10 -35 -3 -26 -5 40 -10 81 -6 78 -6
-60 -10 -138 -4 -141 -4 -60 -10 66 -5 75 -7 40 -10 -35 -3 -26 -5 40 -10 l85
-6 -125 -4 -125 -4 85 -6 c66 -5 75 -7 40 -10 -35 -3 -26 -5 40 -10 81 -6 78
-6 -60 -10 -138 -4 -141 -4 -60 -10 66 -5 75 -7 40 -10 -35 -3 -26 -5 40 -10
l85 -6 -125 -4 -125 -4 85 -6 c66 -5 75 -7 40 -10 -35 -3 -26 -5 40 -10 81 -6
78 -6 -60 -10 -138 -4 -141 -4 -60 -10 66 -5 75 -7 40 -10 -35 -3 -26 -5 40
-10 l85 -6 -125 -4 -125 -4 85 -6 c66 -5 75 -7 40 -10 -35 -3 -26 -5 40 -10
81 -6 78 -6 -60 -10 -138 -4 -141 -4 -60 -10 66 -5 75 -7 40 -10 -35 -3 -26
-5 40 -10 l85 -6 -125 -4 -125 -4 85 -6 c66 -5 75 -7 40 -10 -35 -3 -26 -5 40
-10 76 -6 67 -7 -80 -10 -147 -3 -156 -4 -80 -10 66 -5 75 -7 40 -10 -35 -3
-26 -5 40 -10 l85 -6 -125 -4 -125 -4 85 -6 c66 -5 75 -7 40 -10 -35 -3 -26
-5 40 -10 l85 -6 -125 -4 c-111 -3 -118 -4 -60 -10 36 -4 54 -8 40 -10 -14 -2
13 -7 60 -10 l85 -6 -125 -4 c-111 -3 -118 -4 -60 -10 36 -4 54 -8 40 -10 -14
-2 13 -7 60 -10 76 -6 67 -7 -80 -10 -147 -3 -156 -4 -80 -10 66 -5 75 -7 40
-10 -35 -3 -26 -5 40 -10 l85 -6 -125 -4 -125 -4 85 -6 c66 -5 75 -7 40 -10
-35 -3 -26 -5 40 -10 81 -6 78 -6 -60 -10 -138 -4 -141 -4 -60 -10 66 -5 75
-7 40 -10 -35 -3 -26 -5 40 -10 l85 -6 -125 -4 -125 -4 85 -6 c66 -5 75 -7 40
-10 -35 -3 -26 -5 40 -10 81 -6 78 -6 -60 -10 -138 -4 -141 -4 -60 -10 66 -5
75 -7 40 -10 -35 -3 -26 -5 40 -10 l85 -6 -125 -4 -125 -4 85 -6 c66 -5 75 -7
40 -10 -35 -3 -26 -5 40 -10 81 -6 78 -6 -60 -10 -138 -4 -141 -4 -60 -10 66
-5 75 -7 40 -10 -35 -3 -26 -5 40 -10 l85 -6 -125 -4 -125 -4 85 -6 c66 -5 75
-7 40 -10 -35 -3 -26 -5 40 -10 81 -6 78 -6 -60 -10 -138 -4 -141 -4 -60 -10
66 -5 75 -7 40 -10 -35 -3 -26 -5 40 -10 l85 -6 -125 -4 -125 -4 85 -6 c66 -5
75 -7 40 -10 -35 -3 -26 -5 40 -10 76 -6 67 -7 -80 -10 -147 -3 -156 -4 -80
-10 66 -5 75 -7 40 -10 -35 -3 -26 -5 40 -10 l85 -6 -125 -4 -125 -4 85 -6
c66 -5 75 -7 40 -10 -35 -3 -26 -5 40 -10 81 -6 78 -6 -60 -10 -138 -4 -141
-4 -60 -10 66 -5 75 -7 40 -10 -35 -3 -26 -5 40 -10 l85 -6 -125 -4 -125 -4
85 -6 c66 -5 75 -7 40 -10 -35 -3 -26 -5 40 -10 81 -6 78 -6 -60 -10 -138 -4
-141 -4 -60 -10 66 -5 75 -7 40 -10 -35 -3 -26 -5 40 -10 l85 -6 -125 -4 -125
-4 85 -6 c66 -5 75 -7 40 -10 -35 -3 -26 -5 40 -10 81 -6 78 -6 -60 -10 -138
-4 -141 -4 -60 -10 66 -5 75 -7 40 -10 -35 -3 -26 -5 40 -10 l85 -6 -125 -4
-125 -4 85 -6 c66 -5 75 -7 40 -10 -35 -3 -26 -5 40 -10 81 -6 78 -6 -60 -10
-138 -4 -141 -4 -60 -10 66 -5 75 -7 40 -10 -35 -3 -26 -5 40 -10 l85 -6 -125
-4 -125 -4 85 -6 c66 -5 75 -7 40 -10 -35 -3 -26 -5 40 -10 81 -6 78 -6 -60
-10 -138 -4 -141 -4 -60 -10 66 -5 75 -7 40 -10 -35 -3 -26 -5 40 -10 l85 -6
-125 -4 -125 -4 85 -6 c66 -5 75 -7 40 -10 -35 -3 -26 -5 40 -10 81 -6 78 -6
-60 -10 -138 -4 -141 -4 -60 -10 66 -5 75 -7 40 -10 -35 -3 -26 -5 40 -10 l85
-6 -125 -4 -125 -4 85 -6 c66 -5 75 -7 40 -10 -35 -3 -26 -5 40 -10 76 -6 67
-7 -80 -10 -147 -3 -156 -4 -80 -10 66 -5 75 -7 40 -10 -35 -3 -26 -5 40 -10
l85 -6 -125 -4 -125 -4 85 -6 c66 -5 75 -7 40 -10 -35 -3 -26 -5 40 -10 81 -6
78 -6 -60 -10 -138 -4 -141 -4 -60 -10 66 -5 75 -7 40 -10 -35 -3 -26 -5 40
-10 l85 -6 -125 -4 -125 -4 85 -6 c66 -5 75 -7 40 -10 -35 -3 -26 -5 40 -10
81 -6 78 -6 -60 -10 -138 -4 -141 -4 -60 -10 66 -5 75 -7 40 -10 -35 -3 -26
-5 40 -10 l85 -6 -125 -4 -125 -4 85 -6 c66 -5 75 -7 40 -10 -35 -3 -26 -5 40
-10 81 -6 78 -6 -60 -10 -138 -4 -141 -4 -60 -10 66 -5 75 -7 40 -10 -35 -3
-26 -5 40 -10 l85 -6 -125 -4 -125 -4 85 -6 c66 -5 75 -7 40 -10 -35 -3 -26
-5 40 -10 81 -6 78 -6 -60 -10 -138 -4 -141 -4 -60 -10 66 -5 75 -7 40 -10
-35 -3 -26 -5 40 -10 l85 -6 -125 -4 -125 -4 85 -6 c66 -5 75 -7 40 -10 -35
-3 -26 -5 40 -10 76 -6 67 -7 -80 -10 -147 -3 -156 -4 -80 -10 66 -5 75 -7 40
-10 -35 -3 -26 -5 40 -10 l85 -6 -125 -4 -125 -4 85 -6 c66 -5 75 -7 40 -10
-35 -3 -26 -5 40 -10 l85 -6 -125 -4 -125 -4 85 -6 c66 -5 75 -7 40 -10 -35
-3 -26 -5 40 -10 l85 -6 -125 -4 -125 -4 85 -6 c66 -5 75 -7 40 -10 -35 -3
-26 -5 40 -10 76 -6 67 -7 -80 -10 -147 -3 -156 -4 -80 -10 66 -5 75 -7 40
-10 -35 -3 -26 -5 40 -10 l85 -6 -125 -4 -125 -4 85 -6 c66 -5 75 -7 40 -10
-35 -3 -26 -5 40 -10 81 -6 78 -6 -60 -10 -138 -4 -141 -4 -60 -10 66 -5 75
-7 40 -10 -35 -3 -26 -5 40 -10 l85 -6 -125 -4 -125 -4 85 -6 c66 -5 75 -7 40
-10 -35 -3 -26 -5 40 -10 81 -6 78 -6 -60 -10 -138 -4 -141 -4 -60 -10 66 -5
75 -7 40 -10 -35 -3 -26 -5 40 -10 l85 -6 -125 -4 -125 -4 85 -6 c66 -5 75 -7
40 -10 -35 -3 -26 -5 40 -10 81 -6 78 -6 -60 -10 -138 -4 -141 -4 -60 -10 66
-5 75 -7 40 -10 -35 -3 -26 -5 40 -10 l85 -6 -125 -4 -125 -4 85 -6 c66 -5 75
-7 40 -10 -35 -3 -26 -5 40 -10 81 -6 78 -6 -60 -10 -138 -4 -141 -4 -60 -10
66 -5 75 -7 40 -10 -35 -3 -26 -5 40 -10 l85 -6 -125 -4 -125 -4 85 -6 c66 -5
75 -7 40 -10 -35 -3 -26 -5 40 -10 76 -6 67 -7 -80 -10 -147 -3 -156 -4 -80
-10 66 -5 75 -7 40 -10 -35 -3 -26 -5 40 -10 l85 -6 -125 -4 -125 -4 85 -6
c66 -5 75 -7 40 -10 -35 -3 -26 -5 40 -10 81 -6 78 -6 -60 -10 -138 -4 -141
-4 -60 -10 47 -3 74 -8 60 -10 -14 -2 4 -6 40 -10 58 -6 51 -7 -60 -10 l-125
-4 85 -6 c66 -5 75 -7 40 -10 -35 -3 -26 -5 40 -10 81 -6 78 -6 -60 -10 -138
-4 -141 -4 -60 -10 66 -5 75 -7 40 -10 -35 -3 -26 -5 40 -10 l85 -6 -125 -4
-125 -4 85 -6 c66 -5 75 -7 40 -10 -35 -3 -26 -5 40 -10 81 -6 78 -6 -60 -10
-138 -4 -141 -4 -60 -10 66 -5 75 -7 40 -10 -35 -3 -26 -5 40 -10 l85 -6 -125
-4 -125 -4 85 -6 c66 -5 75 -7 40 -10 -35 -3 -26 -5 40 -10 81 -6 78 -6 -60
-10 -138 -4 -141 -4 -60 -10 66 -5 75 -7 40 -10 -35 -3 -26 -5 40 -10 l85 -6
-125 -4 -125 -4 85 -6 c66 -5 75 -7 40 -10 -35 -3 -26 -5 40 -10 81 -6 78 -6
-60 -10 -138 -4 -141 -4 -60 -10 66 -5 75 -7 40 -10 -35 -3 -26 -5 40 -10 l85
-6 -125 -4 -125 -4 85 -6 c66 -5 75 -7 40 -10 -35 -3 -26 -5 40 -10 81 -6 78
-6 -60 -10 -138 -4 -141 -4 -60 -10 66 -5 75 -7 40 -10 -35 -3 -26 -5 40 -10
l85 -6 -125 -4 -125 -4 85 -6 c66 -5 75 -7 40 -10 -35 -3 -26 -5 40 -10 76 -6
67 -7 -80 -10 -147 -3 -156 -4 -80 -10 66 -5 75 -7 40 -10 -35 -3 -26 -5 40
-10 l85 -6 -125 -4 -125 -4 85 -6 c66 -5 75 -7 40 -10 -35 -3 -26 -5 40 -10
81 -6 78 -6 -60 -10 -138 -4 -141 -4 -60 -10 66 -5 75 -7 40 -10 -35 -3 -26
-5 40 -10 l85 -6 -125 -4 -125 -4 85 -6 c66 -5 75 -7 40 -10 -35 -3 -26 -5 40
-10 81 -6 78 -6 -60 -10 -138 -4 -141 -4 -60 -10 66 -5 75 -7 40 -10 -35 -3
-26 -5 40 -10 l85 -6 -125 -4 -125 -4 85 -6 c66 -5 75 -7 40 -10 -35 -3 -26
-5 40 -10 81 -6 78 -6 -60 -10 -138 -4 -141 -4 -60 -10 66 -5 75 -7 40 -10
-35 -3 -26 -5 40 -10 l85 -6 -125 -4 -125 -4 85 -6 c66 -5 75 -7 40 -10 -35
-3 -26 -5 40 -10 81 -6 78 -6 -60 -10 -138 -4 -141 -4 -60 -10 66 -5 75 -7 40
-10 -35 -3 -26 -5 40 -10 l85 -6 -125 -4 -125 -4 85 -6 c60 -4 72 -7 40 -9
-39 -3 -41 -4 -20 -11 21 -7 19 -8 -20 -11 -32 -2 -20 -5 40 -9 l85 -6 -125
-4 -125 -4 85 -6 c66 -5 75 -7 40 -10 -35 -3 -26 -5 40 -10 81 -6 78 -6 -60
-10 -138 -4 -141 -4 -60 -10 66 -5 75 -7 40 -10 -35 -3 -26 -5 40 -10 l85 -6
-125 -4 -125 -4 85 -6 c66 -5 75 -7 40 -10 -35 -3 -26 -5 40 -10 76 -6 67 -7
-80 -10 -147 -3 -156 -4 -80 -10 66 -5 75 -7 40 -10 -35 -3 -26 -5 40 -10 l85
-6 -125 -4 -125 -4 85 -6 c66 -5 75 -7 40 -10 -35 -3 -26 -5 40 -10 l85 -6
-125 -4 -125 -4 85 -6 c66 -5 75 -7 40 -10 -35 -3 -26 -5 40 -10 l85 -6 -125
-4 -125 -4 85 -6 c66 -5 75 -7 40 -10 -35 -3 -26 -5 40 -10 76 -6 67 -7 -80
-10 -147 -3 -156 -4 -80 -10 66 -5 75 -7 40 -10 -35 -3 -26 -5 40 -10 l85 -6
-125 -4 -125 -4 85 -6 c66 -5 75 -7 40 -10 -35 -3 -26 -5 40 -10 81 -6 78 -6
-60 -10 -138 -4 -141 -4 -60 -10 66 -5 75 -7 40 -10 -35 -3 -26 -5 40 -10 l85
-6 -125 -4 -125 -4 85 -6 c66 -5 75 -7 40 -10 -35 -3 -26 -5 40 -10 81 -6 78
-6 -60 -10 -138 -4 -141 -4 -60 -10 66 -5 75 -7 40 -10 -35 -3 -26 -5 40 -10
l85 -6 -125 -4 -125 -4 85 -6 c66 -5 75 -7 40 -10 -35 -3 -26 -5 40 -10 81 -6
78 -6 -60 -10 -138 -4 -141 -4 -60 -10 66 -5 75 -7 40 -10 -35 -3 -26 -5 40
-10 l85 -6 -125 -4 -125 -4 85 -6 c66 -5 75 -7 40 -10 -35 -3 -26 -5 40 -10
84 -6 83 -6 -50 -10 -125 -3 -129 -4 -60 -10 64 -5 69 -7 30 -10 -35 -3 -26
-5 40 -10 l85 -6 -115 -4 -115 -4 75 -6 c64 -5 69 -7 30 -10 -35 -3 -26 -5 40
-10 l85 -6 -115 -3 c-81 -3 -105 -6 -80 -11 l35 -7 -35 -3 c-21 -2 -6 -6 40
-10 l75 -6 -75 -4 c-62 -2 -69 -4 -40 -10 l35 -7 -35 -3 c-21 -2 -6 -6 40 -10
l75 -6 -75 -4 c-62 -2 -69 -4 -40 -10 l35 -7 -35 -3 c-21 -2 -6 -6 40 -10 l75
-6 -75 -4 c-62 -2 -69 -4 -40 -10 l35 -7 -35 -3 c-21 -2 -6 -6 40 -10 l75 -6
-75 -2 c-53 -2 -71 -5 -60 -12 13 -9 13 -10 0 -11 -8 -1 1 -5 20 -9 l35 -7
-35 -2 c-27 -1 -31 -4 -20 -11 13 -9 13 -10 0 -11 -8 -1 1 -5 20 -9 l35 -7
-32 -2 c-33 -1 -46 -24 -21 -34 10 -4 10 -6 1 -6 -17 -1 -17 -28 0 -34 9 -4 9
-6 0 -6 -10 -1 -13 -804 -13 -3981 l0 -3981 1908 2 c1049 1 1934 4 1966 7 39
3 54 7 45 13 -10 6 -4 9 21 10 27 2 22 4 -20 9 l-55 7 55 3 c51 2 53 3 20 10
-33 7 -32 8 20 10 55 4 55 4 -20 10 -72 6 -72 6 -20 8 40 2 51 5 40 12 -11 7
0 10 40 12 52 2 52 2 -20 8 -72 6 -72 6 -20 8 40 2 51 5 40 12 -11 7 -7 10 20
12 21 1 9 4 -30 8 l-65 7 55 2 c44 2 50 5 30 11 -20 6 -14 9 30 11 54 3 54 3
-20 9 -72 6 -72 6 -20 8 40 2 51 5 40 12 -11 7 0 10 40 12 52 2 52 2 -20 8
-75 6 -75 6 -20 10 52 2 53 3 20 10 -33 7 -32 8 20 10 l55 3 -65 7 -65 7 55 2
c44 2 50 5 30 11 -20 6 -14 9 30 11 54 3 54 3 -20 9 -75 6 -75 6 -20 10 52 2
53 3 20 10 -33 7 -31 8 20 10 l55 3 -55 7 -55 7 55 3 c51 2 53 3 20 10 -33 7
-32 8 20 10 55 4 55 4 -20 10 -75 6 -75 6 -20 10 52 2 53 3 20 10 -33 7 -31 8
20 10 l55 3 -55 7 -55 7 55 3 c51 2 53 3 20 10 -33 7 -32 8 20 10 55 4 55 4
-20 10 -74 6 -74 6 -20 9 44 2 50 5 30 11 -21 7 -18 8 20 11 l45 2 -55 7 -55
7 55 3 c51 2 53 3 20 10 -33 7 -32 8 20 10 55 4 55 4 -20 10 -72 6 -72 6 -20
8 40 2 51 5 40 12 -11 7 0 10 40 12 52 2 52 2 -20 8 -74 6 -74 6 -20 9 44 2
50 5 30 11 -21 7 -18 8 20 11 l45 2 -55 7 c-42 5 -47 7 -20 9 27 1 31 4 20 11
-11 7 0 10 40 12 52 2 52 2 -20 8 -72 6 -72 6 -20 8 40 2 51 5 40 12 -11 7 0
10 40 12 52 2 52 2 -20 8 -75 6 -75 6 -20 10 52 2 53 3 20 10 -33 7 -31 8 20
10 l55 3 -55 7 c-42 5 -47 7 -20 9 27 1 31 4 20 11 -11 7 0 10 40 12 52 2 52
2 -20 8 -75 6 -75 6 -20 10 52 2 53 3 20 10 -33 7 -31 8 20 10 l55 3 -55 7
-55 7 55 3 c51 2 53 3 20 10 -33 7 -32 8 20 10 55 4 55 4 -20 10 -75 6 -75 6
-20 10 52 2 53 3 20 10 -33 7 -31 8 20 10 l55 3 -55 7 -55 7 55 3 c51 2 53 3
20 10 -33 7 -32 8 20 10 55 4 55 4 -20 10 -75 6 -75 6 -20 10 52 2 53 3 20 10
-33 7 -31 8 20 10 l55 3 -55 7 -55 7 55 3 c51 2 53 3 20 10 -33 7 -32 8 20 10
55 4 55 4 -20 10 -72 6 -72 6 -20 8 40 2 51 5 40 12 -11 7 -3 10 30 12 40 1
37 2 -20 8 l-65 7 55 3 c52 2 53 3 20 10 -33 7 -32 8 20 10 55 4 55 4 -20 10
-72 6 -72 6 -20 8 40 2 51 5 40 12 -11 7 0 10 40 12 52 2 52 2 -20 8 -72 6
-72 6 -20 8 40 2 51 5 40 12 -11 7 -3 10 30 12 40 1 37 2 -20 8 -39 4 -51 7
-30 8 27 2 31 5 20 12 -11 7 0 10 40 12 52 2 52 2 -20 8 -72 6 -72 6 -20 8 40
2 51 5 40 12 -11 7 0 10 40 12 52 2 52 2 -20 8 -75 6 -75 6 -20 10 52 2 53 3
20 10 -33 7 -31 8 20 10 l55 3 -55 7 c-42 5 -47 7 -20 9 27 1 31 4 20 11 -11
7 0 10 40 12 52 2 52 2 -20 8 -75 6 -75 6 -20 10 52 2 53 3 20 10 -33 7 -31 8
20 10 l55 3 -55 7 -55 7 55 3 c51 2 53 3 20 10 -33 7 -32 8 20 10 55 4 55 4
-20 10 -75 6 -75 6 -20 10 52 2 53 3 20 10 -33 7 -31 8 20 10 l55 3 -55 7 -55
7 55 3 c51 2 53 3 20 10 -33 7 -32 8 20 10 55 4 55 4 -20 10 -72 6 -72 6 -20
8 40 2 51 5 40 12 -11 7 -7 10 20 11 27 2 22 4 -20 9 l-55 7 55 3 c51 2 53 3
20 10 -33 7 -32 8 20 10 55 4 55 4 -20 10 -72 6 -72 6 -20 8 40 2 51 5 40 12
-11 7 0 10 40 12 52 2 52 2 -20 8 -72 6 -72 6 -20 8 40 2 51 5 40 12 -11 7 -7
10 20 12 21 1 9 4 -30 8 -57 6 -60 7 -20 8 33 2 41 5 30 12 -11 7 0 10 40 12
52 2 52 2 -20 8 -72 6 -72 6 -20 8 40 2 51 5 40 12 -11 7 0 10 40 12 52 2 52
2 -20 8 -75 6 -75 6 -20 10 52 2 53 3 20 10 -33 7 -32 8 20 10 l55 3 -65 7
c-57 6 -60 7 -20 8 33 2 41 5 30 12 -11 7 0 10 40 12 52 2 52 2 -20 8 -75 6
-75 6 -20 10 52 2 53 3 20 10 -33 7 -31 8 20 10 l55 3 -55 7 c-42 5 -47 7 -20
9 27 1 31 4 20 11 -11 7 0 10 40 12 52 2 52 2 -20 8 -75 6 -75 6 -20 10 52 2
53 3 20 10 -33 7 -31 8 20 10 l55 3 -55 7 -55 7 55 3 c51 2 53 3 20 10 l-35 7
35 3 35 3 -35 7 c-33 7 -31 8 20 10 l55 3 -55 7 -55 7 55 3 c51 2 53 3 20 10
-33 7 -32 8 20 10 55 4 55 4 -20 10 -75 6 -75 6 -20 10 52 2 53 3 20 10 -33 7
-31 8 20 10 l55 3 -55 7 -55 7 55 3 c51 2 53 3 20 10 -33 7 -32 8 20 10 55 4
55 4 -20 10 -74 6 -74 6 -20 9 44 2 50 5 30 11 -21 7 -18 8 20 11 l45 2 -55 7
-55 7 55 3 c51 2 53 3 20 10 -33 7 -32 8 20 10 55 4 55 4 -20 10 -72 6 -72 6
-20 8 40 2 51 5 40 12 -11 7 -7 10 20 11 27 2 22 4 -20 9 l-55 7 55 2 c44 2
50 5 30 11 -21 7 -18 8 20 11 l45 2 -55 7 c-42 5 -47 7 -20 9 27 1 31 4 20 11
-11 7 0 10 40 12 52 2 52 2 -20 8 -72 6 -72 6 -20 8 40 2 51 5 40 12 -11 7 -7
10 20 11 27 2 22 4 -20 9 l-55 7 45 2 c38 3 41 4 20 11 -20 6 -14 9 30 11 l55
2 -55 7 c-42 5 -47 7 -20 9 27 1 31 4 20 11 -11 7 0 10 40 12 52 2 52 2 -20 8
-75 6 -75 6 -20 10 52 2 53 3 20 10 -33 7 -31 8 20 10 l55 3 -55 7 -55 7 45 2
c38 3 41 4 20 11 -20 6 -14 9 30 11 54 3 54 3 -20 9 -75 6 -75 6 -20 10 52 2
53 3 20 10 -33 7 -31 8 20 10 l55 3 -55 7 -55 7 55 3 c51 2 53 3 20 10 -33 7
-32 8 20 10 55 4 55 4 -20 10 -75 6 -75 6 -20 10 52 2 53 3 20 10 -33 7 -31 8
20 10 l55 3 -55 7 -55 7 55 3 c51 2 53 3 20 10 -33 7 -32 8 20 10 55 4 55 4
-20 10 -74 6 -74 6 -20 9 44 2 50 5 30 11 -20 6 -14 9 30 11 l55 2 -65 7 -65
7 55 3 c52 2 53 3 20 10 -33 7 -32 8 20 10 55 4 55 4 -20 10 -72 6 -72 6 -20
8 40 2 51 5 40 12 -11 7 0 10 40 12 52 2 52 2 -20 8 -74 6 -74 6 -20 9 44 2
50 5 30 11 -20 6 -14 9 30 11 l55 2 -65 7 c-39 4 -51 7 -30 8 27 2 31 5 20 12
-11 7 0 10 40 12 52 2 52 2 -20 8 -72 6 -72 6 -20 8 40 2 51 5 40 12 -11 7 0
10 40 12 52 2 52 2 -20 8 -75 6 -75 6 -20 10 52 2 53 3 20 10 -33 7 -31 8 20
10 l55 3 -55 7 c-42 5 -47 7 -20 9 27 1 31 4 20 11 -11 7 0 10 40 12 52 2 52
2 -20 8 -75 6 -75 6 -20 10 52 2 53 3 20 10 -33 7 -31 8 20 10 l55 3 -55 7
-55 7 55 3 c51 2 53 3 20 10 -33 7 -32 8 20 10 55 4 55 4 -20 10 -75 6 -75 6
-20 10 52 2 53 3 20 10 -33 7 -31 8 20 10 l55 3 -55 7 -55 7 55 3 c51 2 53 3
20 10 -33 7 -32 8 20 10 55 4 55 4 -20 10 -70 6 -71 7 -21 8 30 1 51 5 48 9
-4 3 -85 8 -180 10 -220 4 -241 7 -268 32 -61 56 -59 42 -59 450 0 359 1 375
21 407 11 18 35 42 53 53 32 20 48 21 537 23 277 1 479 4 449 8 l-55 7 55 3
c51 2 53 3 20 10 -33 7 -32 8 20 10 55 4 55 4 -20 10 -74 6 -74 6 -20 9 44 2
50 5 30 11 -21 7 -18 8 20 11 l45 2 -55 7 -55 7 55 3 c51 2 53 3 20 10 -33 7
-32 8 20 10 55 4 55 4 -20 10 -72 6 -72 6 -20 8 40 2 51 5 40 12 -11 7 -7 10
20 11 27 2 22 4 -20 9 l-55 7 55 2 c44 2 50 5 30 11 -21 7 -18 8 20 11 l45 2
-55 7 c-42 5 -47 7 -20 9 27 1 31 4 20 11 -11 7 0 10 40 12 52 2 52 2 -20 8
-72 6 -72 6 -20 8 40 2 51 5 40 12 -11 7 -7 10 20 11 27 2 22 4 -20 9 l-55 7
45 2 c38 3 41 4 20 11 -20 6 -14 9 30 11 l55 2 -55 7 c-42 5 -47 7 -20 9 27 1
31 4 20 11 -11 7 0 10 40 12 52 2 52 2 -20 8 -75 6 -75 6 -20 10 52 2 53 3 20
10 -33 7 -31 8 20 10 l55 3 -55 7 c-53 6 -53 7 -12 8 23 1 43 2 45 1 1 0 15 6
31 15 16 8 34 12 39 9 6 -3 7 -1 4 4 -4 6 2 18 13 28 19 18 20 17 20 -8 0 -27
0 -27 75 -27 l75 0 0 199 c0 199 0 200 23 204 18 4 17 4 -6 6 -16 0 -26 5 -22
11 3 6 0 11 -7 11 -7 1 3 5 22 9 l35 7 -45 3 c-29 2 -36 4 -21 7 19 4 21 7 10
14 -9 6 3 9 37 9 l52 0 0 -195 c0 -174 -2 -195 -17 -196 -14 0 -14 -1 -1 -7
21 -10 23 -32 3 -33 -17 0 -17 -1 0 -8 30 -11 21 -26 -20 -32 -23 -4 8 -7 75
-8 l112 -1 0 38 c1 189 6 276 18 280 6 2 10 8 7 12 -3 5 7 21 21 35 23 23 33
27 71 22 l43 -5 1 47 c0 25 1 58 3 72 1 24 -1 25 -49 25 -43 0 -55 -4 -82 -32
-33 -33 -33 -33 -33 -9 0 24 -2 25 -81 25 -51 0 -78 -4 -74 -10 4 -6 -20 -9
-67 -8 l-73 1 55 7 c51 5 52 6 20 11 -30 5 -28 6 20 9 l55 3 -55 7 -55 7 55 3
c51 2 53 3 20 10 -33 7 -32 8 20 10 55 4 55 4 -20 10 -75 6 -75 6 -20 10 52 2
53 3 20 10 -33 7 -31 8 20 10 l55 3 -55 7 -55 7 55 3 c51 2 53 3 20 10 -33 7
-32 8 20 10 55 4 55 4 -20 10 -72 6 -72 6 -20 8 40 2 51 5 40 12 -11 7 -7 10
20 11 27 2 22 4 -20 9 l-55 7 55 3 c51 2 53 3 20 10 -33 7 -32 8 20 10 55 4
55 4 -20 10 -72 6 -72 6 -20 8 40 2 51 5 40 12 -11 7 0 10 40 12 52 2 52 2
-20 8 -72 6 -72 6 -20 8 40 2 51 5 40 12 -11 7 -7 10 20 12 21 1 9 4 -30 8
-57 6 -60 7 -20 8 33 2 41 5 30 12 -11 7 0 10 40 12 52 2 52 2 -20 8 -72 6
-72 6 -20 8 40 2 51 5 40 12 -13 9 -13 10 0 10 13 0 13 1 0 10 -11 7 0 10 40
12 52 2 52 2 -20 8 -72 6 -72 6 -20 8 40 2 51 5 40 12 -11 7 -7 10 20 12 21 1
9 4 -30 8 -53 5 -57 7 -22 8 23 1 42 7 42 12 0 6 19 11 43 12 l42 1 -45 7
c-26 4 -34 8 -20 9 20 1 22 3 10 11 -11 7 0 10 40 12 l55 1 -65 7 c-61 6 -62
7 -20 10 l45 3 -35 7 c-33 7 -32 8 20 10 l55 3 -65 7 c-57 6 -60 7 -20 8 33 2
41 5 30 12 -11 7 0 10 40 12 52 2 52 2 -20 8 -75 6 -75 6 -20 10 52 2 53 3 20
10 -33 7 -31 8 20 10 l55 3 -55 7 -55 7 55 3 c51 2 53 3 20 10 l-35 7 38 2
c20 0 38 -3 38 -9 1 -5 2 -18 4 -27 3 -30 25 -76 53 -113 15 -19 26 -39 24
-43 -1 -5 2 -6 7 -3 5 4 15 1 23 -6 7 -7 22 -15 33 -16 11 -2 25 -7 30 -11 15
-11 139 -4 180 9 63 21 135 98 135 145 0 12 -13 15 -67 15 -58 0 -70 -3 -93
-25 -26 -25 -45 -30 -100 -26 -20 1 -22 3 -10 11 12 7 8 10 -14 10 -16 0 -26
3 -23 7 4 3 0 11 -7 17 -8 6 -17 20 -20 31 -6 20 -1 20 160 23 91 1 170 5 176
8 16 10 -1 132 -25 184 -20 42 -65 97 -77 94 -3 -1 -4 2 -3 6 1 5 -5 7 -15 5
-9 -1 -24 1 -32 5 -22 11 -160 18 -166 8 -3 -4 -33 -7 -67 -6 l-62 2 55 3 c38
3 50 7 40 13 -11 7 -6 10 20 11 27 2 22 4 -20 9 l-55 7 45 2 c38 3 41 4 20 11
-20 6 -14 9 30 11 54 3 54 3 -20 9 -72 6 -72 6 -20 8 40 2 51 5 40 12 -11 7 0
10 40 12 52 2 52 2 -20 8 -75 6 -75 6 -20 10 52 2 53 3 20 10 -33 7 -31 8 20
10 l55 3 -55 7 -55 7 45 2 c38 3 41 4 20 11 -20 6 -14 9 30 11 54 3 54 3 -20
9 -75 6 -75 6 -20 10 52 2 53 3 20 10 -33 7 -31 8 20 10 l55 3 -55 7 -55 7 55
3 c51 2 53 3 20 10 -33 7 -32 8 20 10 55 4 55 4 -20 10 -75 6 -75 6 -20 10 52
2 53 3 20 10 -33 7 -31 8 20 10 l55 3 -55 7 -55 7 55 3 c51 2 53 3 20 10 -33
7 -32 8 20 10 55 4 55 4 -20 10 -74 6 -74 6 -20 9 44 2 50 5 30 11 -20 6 -14
9 30 11 l55 2 -65 7 -65 7 55 3 c52 2 53 3 20 10 -33 7 -32 8 20 10 55 4 55 4
-20 10 -72 6 -72 6 -20 8 40 2 51 5 40 12 -11 7 -2 10 33 10 26 0 47 -4 47
-10 0 -6 32 -10 75 -10 l75 0 0 150 c0 113 3 150 13 150 8 0 7 4 -3 10 -11 7
-11 10 -2 10 7 0 11 4 7 9 -3 5 5 20 18 34 22 21 53 27 109 18 21 -3 33 -54
33 -138 1 -77 -2 -93 -15 -94 -10 0 -9 -3 5 -9 l20 -9 -20 -1 -20 -1 20 -9
c16 -7 12 -9 -20 -11 l-40 -2 35 -6 c24 -4 36 -12 36 -23 1 -10 2 -31 3 -48
l1 -30 75 0 75 0 1 148 c0 81 2 168 3 195 1 26 -1 47 -6 47 -19 0 -6 29 15 33
18 3 16 5 -7 6 -16 0 -26 4 -23 7 8 8 -37 49 -75 69 -14 8 -54 16 -87 19 -69
4 -93 15 -40 18 19 1 0 4 -41 8 -72 6 -72 6 -20 8 40 2 51 5 40 12 -11 7 0 10
40 12 52 2 52 2 -20 8 -72 6 -72 6 -20 8 40 2 51 5 40 12 -11 7 -3 10 30 12
40 1 37 2 -20 8 -39 4 -51 7 -30 8 27 2 31 5 20 12 -11 7 0 10 40 12 52 2 52
2 -20 8 -72 6 -72 6 -20 8 40 2 51 5 40 12 -11 7 0 10 40 12 52 2 52 2 -20 8
-75 6 -75 6 -20 10 52 2 53 3 20 10 -33 7 -31 8 20 10 l55 3 -55 7 c-42 5 -47
7 -20 9 27 1 31 4 20 11 -11 7 0 10 40 12 52 2 52 2 -20 8 -75 6 -75 6 -20 10
52 2 53 3 20 10 -33 7 -31 8 20 10 l55 3 -55 7 -55 7 55 3 c51 2 53 3 20 10
-33 7 -32 8 20 10 55 4 55 4 -20 10 -75 6 -75 6 -20 10 52 2 53 3 20 10 -33 7
-31 8 20 10 l55 3 -55 7 -55 7 55 3 c51 2 53 3 20 10 -33 7 -32 8 20 10 55 4
55 4 -20 10 -72 6 -72 6 -20 8 40 2 51 5 40 12 -11 7 -7 10 20 11 27 2 22 4
-20 9 l-55 7 55 3 c51 2 53 3 20 10 -33 7 -32 8 20 10 55 4 55 4 -20 10 -72 6
-72 6 -20 8 40 2 51 5 40 12 -11 7 0 10 40 12 52 2 52 2 -20 8 -72 6 -72 6
-20 8 40 2 51 5 40 12 -11 7 -7 10 20 12 21 1 9 4 -30 8 l-65 7 55 2 c44 2 50
5 30 11 -20 6 -14 9 30 11 54 3 54 3 -20 9 -72 6 -72 6 -20 8 40 2 51 5 40 12
-11 7 0 10 40 12 52 2 52 2 -20 8 -75 6 -75 6 -20 10 52 2 53 3 20 10 -33 7
-32 8 20 10 l55 3 -65 7 c-57 6 -60 7 -20 8 33 2 41 5 30 12 -11 7 0 10 40 12
52 2 52 2 -20 8 -75 6 -75 6 -20 10 52 2 53 3 20 10 -33 7 -31 8 20 10 l55 3
-55 7 -55 7 55 3 c51 2 53 3 20 10 -33 7 -32 8 20 10 55 4 55 4 -20 10 -75 6
-75 6 -20 10 52 2 53 3 20 10 -33 7 -31 8 20 10 l55 3 -55 7 -55 7 55 3 c51 2
53 3 20 10 -33 7 -32 8 20 10 55 4 55 4 -20 10 -74 6 -74 6 -20 9 44 2 50 5
30 11 -21 7 -18 8 20 11 l45 2 -55 7 -55 7 55 3 c51 2 53 3 20 10 -33 7 -32 8
20 10 55 4 55 4 -20 10 -72 6 -72 6 -20 8 40 2 51 5 40 12 -11 7 -7 10 20 11
27 2 22 4 -20 9 l-55 7 55 2 c44 2 50 5 30 11 -21 7 -18 8 20 11 l45 2 -55 7
c-42 5 -47 7 -20 9 27 1 31 4 20 11 -11 7 0 10 40 12 52 2 52 2 -20 8 -72 6
-72 6 -20 8 40 2 51 5 40 12 -11 7 -7 10 20 11 27 2 22 4 -20 9 l-55 7 45 2
c38 3 41 4 20 11 -20 6 -14 9 30 11 l55 2 -55 7 c-42 5 -47 7 -20 9 27 1 31 4
20 11 -11 7 0 10 40 12 52 2 52 2 -20 8 -75 6 -75 6 -20 10 52 2 53 3 20 10
-33 7 -31 8 20 10 l55 3 -55 7 -55 7 45 2 c38 3 41 4 20 11 -20 6 -14 9 30 11
54 3 54 3 -20 9 -75 6 -75 6 -20 10 52 2 53 3 20 10 -33 7 -31 8 20 10 l55 3
-55 7 -55 7 55 3 c51 2 53 3 20 10 -33 7 -32 8 20 10 55 4 55 4 -20 10 -75 6
-75 6 -20 10 52 2 53 3 20 10 -33 7 -31 8 20 10 l55 3 -55 7 -55 7 55 3 c51 2
53 3 20 10 -33 7 -32 8 20 10 55 4 55 4 -20 10 -74 6 -74 6 -20 9 44 2 50 5
30 11 -20 6 -14 9 30 11 l55 2 -65 7 -65 7 55 3 c52 2 53 3 20 10 -33 7 -32 8
20 10 55 4 55 4 -20 10 -72 6 -72 6 -20 8 40 2 51 5 40 12 -11 7 0 10 40 12
52 2 52 2 -20 8 -74 6 -74 6 -20 9 44 2 50 5 30 11 -20 6 -14 9 30 11 l55 2
-65 7 c-39 4 -51 7 -30 8 27 2 31 5 20 12 -11 7 0 10 40 12 52 2 52 2 -20 8
-72 6 -72 6 -20 8 40 2 51 5 40 12 -11 7 0 10 40 12 52 2 52 2 -20 8 -75 6
-75 6 -20 10 52 2 53 3 20 10 -33 7 -31 8 20 10 l55 3 -55 7 c-42 5 -47 7 -20
9 27 1 31 4 20 11 -11 7 0 10 40 12 52 2 52 2 -20 8 -75 6 -75 6 -20 10 52 2
53 3 20 10 -33 7 -31 8 20 10 l55 3 -55 7 -55 7 55 3 c51 2 53 3 20 10 -33 7
-32 8 20 10 55 4 55 4 -20 10 -75 6 -75 6 -20 10 52 2 53 3 20 10 -33 7 -31 8
20 10 l55 3 -55 7 -55 7 55 3 c51 2 53 3 20 10 l-35 7 35 3 35 3 -35 7 c-33 7
-31 8 20 10 l55 3 -55 7 -55 7 55 3 c51 2 53 3 20 10 -33 7 -32 8 20 10 55 4
55 4 -20 10 -75 6 -75 6 -20 10 52 2 53 3 20 10 -33 7 -31 8 20 10 l55 3 -55
7 -55 7 55 3 c51 2 53 3 20 10 -33 7 -32 8 20 10 55 4 55 4 -20 10 -72 6 -72
6 -20 8 40 2 51 5 40 12 -11 7 -7 10 20 11 27 2 22 4 -20 9 l-55 7 55 3 c51 2
53 3 20 10 -33 7 -32 8 20 10 55 4 55 4 -20 10 -72 6 -72 6 -20 8 40 2 51 5
40 12 -11 7 0 10 40 12 52 2 52 2 -20 8 -72 6 -72 6 -20 8 40 2 51 5 40 12
-11 7 -7 10 20 12 21 1 9 4 -30 8 -57 6 -60 7 -20 8 33 2 41 5 30 12 -11 7 0
10 40 12 52 2 52 2 -20 8 -72 6 -72 6 -20 8 40 2 51 5 40 12 -11 7 0 10 40 12
52 2 52 2 -20 8 -41 4 -59 7 -40 8 27 2 31 5 20 12 -11 7 0 10 40 12 l55 1
-65 7 c-57 6 -60 7 -20 8 33 2 41 5 30 12 -11 7 0 10 40 12 52 2 52 2 -20 8
-75 6 -75 6 -20 10 52 2 53 3 20 10 -33 7 -31 8 20 10 l55 3 -55 7 c-42 5 -47
7 -20 9 27 1 31 4 20 11 -11 7 0 10 40 12 52 2 52 2 -20 8 -75 6 -75 6 -20 10
52 2 53 3 20 10 -33 7 -31 8 20 10 l55 3 -55 7 -55 7 55 3 c51 2 53 3 20 10
-33 7 -32 8 20 10 55 4 55 4 -20 10 -75 6 -75 6 -20 10 52 2 53 3 20 10 -33 7
-31 8 20 10 l55 3 -55 7 -55 7 55 3 c51 2 53 3 20 10 -33 7 -32 8 20 10 55 4
55 4 -20 10 -72 6 -72 6 -20 8 40 2 51 5 40 12 -11 7 -7 10 20 11 27 2 22 4
-20 9 l-55 7 55 3 c51 2 53 3 20 10 -33 7 -32 8 20 10 55 4 55 4 -20 10 -72 6
-72 6 -20 8 40 2 51 5 40 12 -11 7 0 10 40 12 52 2 52 2 -20 8 -72 6 -72 6
-20 8 40 2 51 5 40 12 -11 7 -7 10 20 12 21 1 9 4 -30 8 l-65 7 55 2 c44 2 50
5 30 11 -20 6 -14 9 30 11 54 3 54 3 -20 9 -72 6 -72 6 -20 8 40 2 51 5 40 12
-11 7 0 10 40 12 52 2 52 2 -20 8 -75 6 -75 6 -20 10 52 2 53 3 20 10 -33 7
-32 8 20 10 l55 3 -65 7 -65 7 55 2 c44 2 50 5 30 11 -20 6 -14 9 30 11 54 3
54 3 -20 9 -75 6 -75 6 -20 10 52 2 53 3 20 10 -33 7 -31 8 20 10 l55 3 -55 7
-55 7 55 3 c51 2 53 3 20 10 -33 7 -32 8 20 10 55 4 55 4 -20 10 -75 6 -75 6
-20 10 52 2 53 3 20 10 -33 7 -31 8 20 10 l55 3 -55 7 -55 7 55 3 c51 2 53 3
20 10 -33 7 -32 8 20 10 55 4 55 4 -20 10 -74 6 -74 6 -20 9 44 2 50 5 30 11
-21 7 -18 8 20 11 l45 2 -55 7 -55 7 55 3 c51 2 53 3 20 10 -33 7 -32 8 20 10
55 4 55 4 -20 10 -72 6 -72 6 -20 8 40 2 51 5 40 12 -11 7 0 10 40 12 52 2 52
2 -20 8 -74 6 -74 6 -20 9 44 2 50 5 30 11 -21 7 -18 8 20 11 l45 2 -55 7
c-42 5 -47 7 -20 9 27 1 31 4 20 11 -11 7 0 10 40 12 52 2 52 2 -20 8 -72 6
-72 6 -20 8 40 2 51 5 40 12 -11 7 0 10 40 12 52 2 52 2 -20 8 -75 6 -75 6
-20 10 52 2 53 3 20 10 -33 7 -31 8 20 10 l55 3 -55 7 c-42 5 -47 7 -20 9 27
1 31 4 20 11 -11 7 0 10 40 12 52 2 52 2 -20 8 -75 6 -75 6 -20 10 52 2 53 3
20 10 -33 7 -31 8 20 10 l55 3 -55 7 -55 7 55 3 c51 2 53 3 20 10 -33 7 -32 8
20 10 55 4 55 4 -20 10 -75 6 -75 6 -20 10 52 2 53 3 20 10 -33 7 -31 8 20 10
l55 3 -55 7 -55 7 55 3 c51 2 53 3 20 10 -33 7 -32 8 20 10 55 4 55 4 -20 10
-72 6 -72 6 -20 8 40 2 51 5 40 12 -11 7 -7 10 20 11 27 2 22 4 -20 9 l-55 7
55 3 c51 2 53 3 20 10 -33 7 -32 8 20 10 55 4 55 4 -20 10 -72 6 -72 6 -20 8
40 2 51 5 40 12 -11 7 -3 10 30 12 40 1 37 2 -20 8 l-65 7 55 3 c52 2 53 3 20
10 -33 7 -32 8 20 10 55 4 55 4 -20 10 -72 6 -72 6 -20 8 40 2 51 5 40 12 -11
7 0 10 40 12 52 2 52 2 -20 8 -72 6 -72 6 -20 8 40 2 51 5 40 12 -11 7 -3 10
30 12 40 1 37 2 -20 8 -39 4 -51 7 -30 8 27 2 31 5 20 12 -11 7 0 10 40 12 52
2 52 2 -20 8 -72 6 -72 6 -20 8 40 2 51 5 40 12 -11 7 0 10 40 12 52 2 52 2
-20 8 -75 6 -75 6 -20 10 52 2 53 3 20 10 -33 7 -31 8 20 10 l55 3 -55 7 c-42
5 -47 7 -20 9 27 1 31 4 20 11 -11 7 0 10 40 12 52 2 52 2 -20 8 -75 6 -75 6
-20 10 52 2 53 3 20 10 -33 7 -31 8 20 10 l55 3 -55 7 -55 7 55 3 c51 2 53 3
20 10 -33 7 -32 8 20 10 55 4 55 4 -20 10 -75 6 -75 6 -20 10 52 2 53 3 20 10
-33 7 -31 8 20 10 l55 3 -55 7 -55 7 55 3 c51 2 53 3 20 10 -33 7 -32 8 20 10
55 4 55 4 -20 10 -72 6 -72 6 -20 8 40 2 51 5 40 12 -11 7 -7 10 20 11 27 2
22 4 -20 9 l-55 7 55 3 c51 2 53 3 20 10 -33 7 -32 8 20 10 55 4 55 4 -20 10
-72 6 -72 6 -20 8 40 2 51 5 40 12 -11 7 0 10 40 12 52 2 52 2 -20 8 -72 6
-72 6 -20 8 40 2 51 5 40 12 -11 7 -7 10 20 12 21 1 9 4 -30 8 -57 6 -60 7
-20 8 33 2 41 5 30 12 -11 7 0 10 40 12 52 2 52 2 -20 8 -72 6 -72 6 -20 8 40
2 51 5 40 12 -11 7 0 10 40 12 52 2 52 2 -20 8 -75 6 -75 6 -20 10 52 2 53 3
20 10 -33 7 -32 8 20 10 l55 3 -65 7 c-57 6 -60 7 -20 8 33 2 41 5 30 12 -11
7 0 10 40 12 52 2 52 2 -20 8 -75 6 -75 6 -20 10 52 2 53 3 20 10 -33 7 -31 8
20 10 l55 3 -55 7 -55 7 55 3 c51 2 53 3 20 10 -33 7 -32 8 20 10 55 4 55 4
-20 10 -75 6 -75 6 -20 10 52 2 53 3 20 10 -33 7 -31 8 20 10 l55 3 -55 7 -55
7 55 3 c51 2 53 3 20 10 -33 7 -32 8 20 10 55 4 55 4 -20 10 -75 6 -75 6 -20
10 52 2 53 3 20 10 -33 7 -31 8 20 10 l55 3 -55 7 -55 7 55 3 c51 2 53 3 20
10 -33 7 -32 8 20 10 55 4 55 4 -20 10 -72 6 -72 6 -20 8 40 2 51 5 40 12 -11
7 -7 10 20 11 27 2 22 4 -20 9 l-55 7 55 3 c51 2 53 3 20 10 -33 7 -32 8 20
10 55 4 55 4 -20 10 -72 6 -72 6 -20 8 40 2 51 5 40 12 -11 7 0 10 40 12 52 2
52 2 -20 8 -72 6 -72 6 -20 8 40 2 51 5 40 12 -11 7 -7 10 20 11 27 2 22 4
-20 9 l-55 7 45 2 c38 3 41 4 20 11 -20 6 -14 9 30 11 54 3 54 3 -20 9 -72 6
-72 6 -20 8 40 2 51 5 40 12 -11 7 0 10 40 12 52 2 52 2 -20 8 -75 6 -75 6
-20 10 52 2 53 3 20 10 -33 7 -31 8 20 10 l55 3 -55 7 -55 7 45 2 c38 3 41 4
20 11 -20 6 -14 9 30 11 54 3 54 3 -20 9 -75 6 -75 6 -20 10 52 2 53 3 20 10
-33 7 -31 8 20 10 l55 3 -55 7 -55 7 55 3 c51 2 53 3 20 10 -33 7 -32 8 20 10
55 4 55 4 -20 10 -75 6 -75 6 -20 10 52 2 53 3 20 10 -33 7 -31 8 20 10 l55 3
-55 7 -55 7 55 3 c51 2 53 3 20 10 -33 7 -32 8 20 10 55 4 55 4 -20 10 -74 6
-74 6 -20 9 44 2 50 5 30 11 -20 6 -14 9 30 11 l55 2 -65 7 -65 7 55 3 c52 2
53 3 20 10 -33 7 -32 8 20 10 55 4 55 4 -20 10 -72 6 -72 6 -20 8 40 2 51 5
40 12 -11 7 0 10 40 12 52 2 52 2 -20 8 -74 6 -74 6 -20 9 44 2 50 5 30 11
-20 6 -14 9 30 11 l55 2 -65 7 c-39 4 -51 7 -30 8 27 2 31 5 20 12 -11 7 0 10
40 12 52 2 52 2 -20 8 -72 6 -72 6 -20 8 38 2 51 5 40 12 -10 6 2 10 40 13 30
2 -1934 3 -4365 3 -2431 0 -4382 -3 -4335 -6z m8557 -66 c-3 -3 -12 -4 -19 -1
-8 3 -5 6 6 6 11 1 17 -2 13 -5z m-8520 -20 c-3 -3 -12 -4 -19 -1 -8 3 -5 6 6
6 11 1 17 -2 13 -5z m80 -20 c-3 -3 -12 -4 -19 -1 -8 3 -5 6 6 6 11 1 17 -2
13 -5z m-80 -20 c-3 -3 -12 -4 -19 -1 -8 3 -5 6 6 6 11 1 17 -2 13 -5z m80
-20 c-3 -3 -12 -4 -19 -1 -8 3 -5 6 6 6 11 1 17 -2 13 -5z m-120 -20 c-3 -3
-12 -4 -19 -1 -8 3 -5 6 6 6 11 1 17 -2 13 -5z m80 -20 c-3 -3 -12 -4 -19 -1
-8 3 -5 6 6 6 11 1 17 -2 13 -5z m-80 -20 c-3 -3 -12 -4 -19 -1 -8 3 -5 6 6 6
11 1 17 -2 13 -5z m80 -20 c-3 -3 -12 -4 -19 -1 -8 3 -5 6 6 6 11 1 17 -2 13
-5z m-160 -100 c-3 -3 -12 -4 -19 -1 -8 3 -5 6 6 6 11 1 17 -2 13 -5z m80 -20
c-3 -3 -12 -4 -19 -1 -8 3 -5 6 6 6 11 1 17 -2 13 -5z m-80 -20 c-3 -3 -12 -4
-19 -1 -8 3 -5 6 6 6 11 1 17 -2 13 -5z m80 -20 c-3 -3 -12 -4 -19 -1 -8 3 -5
6 6 6 11 1 17 -2 13 -5z m-200 -100 c-3 -3 -12 -4 -19 -1 -8 3 -5 6 6 6 11 1
17 -2 13 -5z m80 -20 c-3 -3 -12 -4 -19 -1 -8 3 -5 6 6 6 11 1 17 -2 13 -5z
m-80 -20 c-3 -3 -12 -4 -19 -1 -8 3 -5 6 6 6 11 1 17 -2 13 -5z m80 -20 c-3
-3 -12 -4 -19 -1 -8 3 -5 6 6 6 11 1 17 -2 13 -5z m-120 -20 c-3 -3 -12 -4
-19 -1 -8 3 -5 6 6 6 11 1 17 -2 13 -5z m0 -40 c-3 -3 -12 -4 -19 -1 -8 3 -5
6 6 6 11 1 17 -2 13 -5z m-40 -40 c-3 -3 -12 -4 -19 -1 -8 3 -5 6 6 6 11 1 17
-2 13 -5z m80 -20 c-3 -3 -12 -4 -19 -1 -8 3 -5 6 6 6 11 1 17 -2 13 -5z m-80
-20 c-3 -3 -12 -4 -19 -1 -8 3 -5 6 6 6 11 1 17 -2 13 -5z m80 -20 c-3 -3 -12
-4 -19 -1 -8 3 -5 6 6 6 11 1 17 -2 13 -5z m-120 -20 c-3 -3 -12 -4 -19 -1 -8
3 -5 6 6 6 11 1 17 -2 13 -5z m80 -20 c-3 -3 -12 -4 -19 -1 -8 3 -5 6 6 6 11
1 17 -2 13 -5z m-80 -20 c-3 -3 -12 -4 -19 -1 -8 3 -5 6 6 6 11 1 17 -2 13 -5z
m80 -20 c-3 -3 -12 -4 -19 -1 -8 3 -5 6 6 6 11 1 17 -2 13 -5z m-160 -100 c-3
-3 -12 -4 -19 -1 -8 3 -5 6 6 6 11 1 17 -2 13 -5z m80 -20 c-3 -3 -12 -4 -19
-1 -8 3 -5 6 6 6 11 1 17 -2 13 -5z m-80 -20 c-3 -3 -12 -4 -19 -1 -8 3 -5 6
6 6 11 1 17 -2 13 -5z m80 -20 c-3 -3 -12 -4 -19 -1 -8 3 -5 6 6 6 11 1 17 -2
13 -5z m-200 -100 c-3 -3 -12 -4 -19 -1 -8 3 -5 6 6 6 11 1 17 -2 13 -5z m80
-20 c-3 -3 -12 -4 -19 -1 -8 3 -5 6 6 6 11 1 17 -2 13 -5z m-80 -20 c-3 -3
-12 -4 -19 -1 -8 3 -5 6 6 6 11 1 17 -2 13 -5z m80 -20 c-3 -3 -12 -4 -19 -1
-8 3 -5 6 6 6 11 1 17 -2 13 -5z m-120 -20 c-3 -3 -12 -4 -19 -1 -8 3 -5 6 6
6 11 1 17 -2 13 -5z m8560 0 c-3 -3 -12 -4 -19 -1 -8 3 -5 6 6 6 11 1 17 -2
13 -5z m-8480 -20 c-3 -3 -12 -4 -19 -1 -8 3 -5 6 6 6 11 1 17 -2 13 -5z m-80
-20 c-3 -3 -12 -4 -19 -1 -8 3 -5 6 6 6 11 1 17 -2 13 -5z m80 -20 c-3 -3 -12
-4 -19 -1 -8 3 -5 6 6 6 11 1 17 -2 13 -5z m-120 -20 c-3 -3 -12 -4 -19 -1 -8
3 -5 6 6 6 11 1 17 -2 13 -5z m80 -20 c-3 -3 -12 -4 -19 -1 -8 3 -5 6 6 6 11
1 17 -2 13 -5z m-80 -20 c-3 -3 -12 -4 -19 -1 -8 3 -5 6 6 6 11 1 17 -2 13 -5z
m8520 0 c-3 -3 -12 -4 -19 -1 -8 3 -5 6 6 6 11 1 17 -2 13 -5z m-8440 -20 c-3
-3 -12 -4 -19 -1 -8 3 -5 6 6 6 11 1 17 -2 13 -5z m-120 -20 c-3 -3 -12 -4
-19 -1 -8 3 -5 6 6 6 11 1 17 -2 13 -5z m80 -20 c-3 -3 -12 -4 -19 -1 -8 3 -5
6 6 6 11 1 17 -2 13 -5z m-80 -20 c-3 -3 -12 -4 -19 -1 -8 3 -5 6 6 6 11 1 17
-2 13 -5z m80 -20 c-3 -3 -12 -4 -19 -1 -8 3 -5 6 6 6 11 1 17 -2 13 -5z
m8320 -120 c-3 -3 -12 -4 -19 -1 -8 3 -5 6 6 6 11 1 17 -2 13 -5z m-80 -120
c-3 -3 -12 -4 -19 -1 -8 3 -5 6 6 6 11 1 17 -2 13 -5z m-8520 -20 c-3 -3 -12
-4 -19 -1 -8 3 -5 6 6 6 11 1 17 -2 13 -5z m80 -20 c-3 -3 -12 -4 -19 -1 -8 3
-5 6 6 6 11 1 17 -2 13 -5z m-80 -20 c-3 -3 -12 -4 -19 -1 -8 3 -5 6 6 6 11 1
17 -2 13 -5z m80 -20 c-3 -3 -12 -4 -19 -1 -8 3 -5 6 6 6 11 1 17 -2 13 -5z
m-120 -20 c-3 -3 -12 -4 -19 -1 -8 3 -5 6 6 6 11 1 17 -2 13 -5z m80 -20 c-3
-3 -12 -4 -19 -1 -8 3 -5 6 6 6 11 1 17 -2 13 -5z m-80 -20 c-3 -3 -12 -4 -19
-1 -8 3 -5 6 6 6 11 1 17 -2 13 -5z m80 -20 c-3 -3 -12 -4 -19 -1 -8 3 -5 6 6
6 11 1 17 -2 13 -5z m-120 -20 c-3 -3 -12 -4 -19 -1 -8 3 -5 6 6 6 11 1 17 -2
13 -5z m80 -20 c-3 -3 -12 -4 -19 -1 -8 3 -5 6 6 6 11 1 17 -2 13 -5z m-80
-20 c-3 -3 -12 -4 -19 -1 -8 3 -5 6 6 6 11 1 17 -2 13 -5z m8520 0 c-3 -3 -12
-4 -19 -1 -8 3 -5 6 6 6 11 1 17 -2 13 -5z m-8440 -20 c-3 -3 -12 -4 -19 -1
-8 3 -5 6 6 6 11 1 17 -2 13 -5z m-120 -20 c-3 -3 -12 -4 -19 -1 -8 3 -5 6 6
6 11 1 17 -2 13 -5z m80 -20 c-3 -3 -12 -4 -19 -1 -8 3 -5 6 6 6 11 1 17 -2
13 -5z m-80 -20 c-3 -3 -12 -4 -19 -1 -8 3 -5 6 6 6 11 1 17 -2 13 -5z m80
-20 c-3 -3 -12 -4 -19 -1 -8 3 -5 6 6 6 11 1 17 -2 13 -5z m-200 -100 c-3 -3
-12 -4 -19 -1 -8 3 -5 6 6 6 11 1 17 -2 13 -5z m80 -20 c-3 -3 -12 -4 -19 -1
-8 3 -5 6 6 6 11 1 17 -2 13 -5z m8440 0 c-3 -3 -12 -4 -19 -1 -8 3 -5 6 6 6
11 1 17 -2 13 -5z m-8520 -20 c-3 -3 -12 -4 -19 -1 -8 3 -5 6 6 6 11 1 17 -2
13 -5z m80 -20 c-3 -3 -12 -4 -19 -1 -8 3 -5 6 6 6 11 1 17 -2 13 -5z m8360
-80 c-3 -3 -12 -4 -19 -1 -8 3 -5 6 6 6 11 1 17 -2 13 -5z m-8520 -20 c-3 -3
-12 -4 -19 -1 -8 3 -5 6 6 6 11 1 17 -2 13 -5z m80 -20 c-3 -3 -12 -4 -19 -1
-8 3 -5 6 6 6 11 1 17 -2 13 -5z m-80 -20 c-3 -3 -12 -4 -19 -1 -8 3 -5 6 6 6
11 1 17 -2 13 -5z m80 -20 c-3 -3 -12 -4 -19 -1 -8 3 -5 6 6 6 11 1 17 -2 13
-5z m-120 -20 c-3 -3 -12 -4 -19 -1 -8 3 -5 6 6 6 11 1 17 -2 13 -5z m80 -20
c-3 -3 -12 -4 -19 -1 -8 3 -5 6 6 6 11 1 17 -2 13 -5z m-80 -20 c-3 -3 -12 -4
-19 -1 -8 3 -5 6 6 6 11 1 17 -2 13 -5z m80 -20 c-3 -3 -12 -4 -19 -1 -8 3 -5
6 6 6 11 1 17 -2 13 -5z m-160 -100 c-3 -3 -12 -4 -19 -1 -8 3 -5 6 6 6 11 1
17 -2 13 -5z m80 -20 c-3 -3 -12 -4 -19 -1 -8 3 -5 6 6 6 11 1 17 -2 13 -5z
m-80 -20 c-3 -3 -12 -4 -19 -1 -8 3 -5 6 6 6 11 1 17 -2 13 -5z m80 -20 c-3
-3 -12 -4 -19 -1 -8 3 -5 6 6 6 11 1 17 -2 13 -5z m-200 -100 c-3 -3 -12 -4
-19 -1 -8 3 -5 6 6 6 11 1 17 -2 13 -5z m80 -20 c-3 -3 -12 -4 -19 -1 -8 3 -5
6 6 6 11 1 17 -2 13 -5z m-80 -20 c-3 -3 -12 -4 -19 -1 -8 3 -5 6 6 6 11 1 17
-2 13 -5z m80 -20 c-3 -3 -12 -4 -19 -1 -8 3 -5 6 6 6 11 1 17 -2 13 -5z
m-120 -20 c-3 -3 -12 -4 -19 -1 -8 3 -5 6 6 6 11 1 17 -2 13 -5z m8560 0 c-3
-3 -12 -4 -19 -1 -8 3 -5 6 6 6 11 1 17 -2 13 -5z m-8480 -20 c-3 -3 -12 -4
-19 -1 -8 3 -5 6 6 6 11 1 17 -2 13 -5z m-80 -20 c-3 -3 -12 -4 -19 -1 -8 3
-5 6 6 6 11 1 17 -2 13 -5z m80 -20 c-3 -3 -12 -4 -19 -1 -8 3 -5 6 6 6 11 1
17 -2 13 -5z m-120 -20 c-3 -3 -12 -4 -19 -1 -8 3 -5 6 6 6 11 1 17 -2 13 -5z
m80 -20 c-3 -3 -12 -4 -19 -1 -8 3 -5 6 6 6 11 1 17 -2 13 -5z m-80 -20 c-3
-3 -12 -4 -19 -1 -8 3 -5 6 6 6 11 1 17 -2 13 -5z m8520 0 c-3 -3 -12 -4 -19
-1 -8 3 -5 6 6 6 11 1 17 -2 13 -5z m-8440 -20 c-3 -3 -12 -4 -19 -1 -8 3 -5
6 6 6 11 1 17 -2 13 -5z m-120 -20 c-3 -3 -12 -4 -19 -1 -8 3 -5 6 6 6 11 1
17 -2 13 -5z m80 -20 c-3 -3 -12 -4 -19 -1 -8 3 -5 6 6 6 11 1 17 -2 13 -5z
m-80 -20 c-3 -3 -12 -4 -19 -1 -8 3 -5 6 6 6 11 1 17 -2 13 -5z m80 -20 c-3
-3 -12 -4 -19 -1 -8 3 -5 6 6 6 11 1 17 -2 13 -5z m-160 -100 c-3 -3 -12 -4
-19 -1 -8 3 -5 6 6 6 11 1 17 -2 13 -5z m80 -20 c-3 -3 -12 -4 -19 -1 -8 3 -5
6 6 6 11 1 17 -2 13 -5z m0 -40 c-3 -3 -12 -4 -19 -1 -8 3 -5 6 6 6 11 1 17
-2 13 -5z m-200 -100 c-3 -3 -12 -4 -19 -1 -8 3 -5 6 6 6 11 1 17 -2 13 -5z
m80 -20 c-3 -3 -12 -4 -19 -1 -8 3 -5 6 6 6 11 1 17 -2 13 -5z m-80 -20 c-3
-3 -12 -4 -19 -1 -8 3 -5 6 6 6 11 1 17 -2 13 -5z m80 -20 c-3 -3 -12 -4 -19
-1 -8 3 -5 6 6 6 11 1 17 -2 13 -5z m-120 -20 c-3 -3 -12 -4 -19 -1 -8 3 -5 6
6 6 11 1 17 -2 13 -5z m8560 0 c-3 -3 -12 -4 -19 -1 -8 3 -5 6 6 6 11 1 17 -2
13 -5z m-8480 -20 c-3 -3 -12 -4 -19 -1 -8 3 -5 6 6 6 11 1 17 -2 13 -5z m-80
-20 c-3 -3 -12 -4 -19 -1 -8 3 -5 6 6 6 11 1 17 -2 13 -5z m80 -20 c-3 -3 -12
-4 -19 -1 -8 3 -5 6 6 6 11 1 17 -2 13 -5z m-120 -20 c-3 -3 -12 -4 -19 -1 -8
3 -5 6 6 6 11 1 17 -2 13 -5z m80 -20 c-3 -3 -12 -4 -19 -1 -8 3 -5 6 6 6 11
1 17 -2 13 -5z m-80 -20 c-3 -3 -12 -4 -19 -1 -8 3 -5 6 6 6 11 1 17 -2 13 -5z
m8520 0 c-3 -3 -12 -4 -19 -1 -8 3 -5 6 6 6 11 1 17 -2 13 -5z m-8440 -20 c-3
-3 -12 -4 -19 -1 -8 3 -5 6 6 6 11 1 17 -2 13 -5z m-120 -20 c-3 -3 -12 -4
-19 -1 -8 3 -5 6 6 6 11 1 17 -2 13 -5z m80 -20 c-3 -3 -12 -4 -19 -1 -8 3 -5
6 6 6 11 1 17 -2 13 -5z m-80 -20 c-3 -3 -12 -4 -19 -1 -8 3 -5 6 6 6 11 1 17
-2 13 -5z m80 -20 c-3 -3 -12 -4 -19 -1 -8 3 -5 6 6 6 11 1 17 -2 13 -5z
m-160 -80 c-3 -3 -12 -4 -19 -1 -8 3 -5 6 6 6 11 1 17 -2 13 -5z m80 -20 c-3
-3 -12 -4 -19 -1 -8 3 -5 6 6 6 11 1 17 -2 13 -5z m-80 -20 c-3 -3 -12 -4 -19
-1 -8 3 -5 6 6 6 11 1 17 -2 13 -5z m80 -20 c-3 -3 -12 -4 -19 -1 -8 3 -5 6 6
6 11 1 17 -2 13 -5z m-200 -100 c-3 -3 -12 -4 -19 -1 -8 3 -5 6 6 6 11 1 17
-2 13 -5z m80 -20 c-3 -3 -12 -4 -19 -1 -8 3 -5 6 6 6 11 1 17 -2 13 -5z
m8440 0 c-3 -3 -12 -4 -19 -1 -8 3 -5 6 6 6 11 1 17 -2 13 -5z m-8520 -20 c-3
-3 -12 -4 -19 -1 -8 3 -5 6 6 6 11 1 17 -2 13 -5z m80 -20 c-3 -3 -12 -4 -19
-1 -8 3 -5 6 6 6 11 1 17 -2 13 -5z m8360 -80 c-3 -3 -12 -4 -19 -1 -8 3 -5 6
6 6 11 1 17 -2 13 -5z m-8520 -20 c-3 -3 -12 -4 -19 -1 -8 3 -5 6 6 6 11 1 17
-2 13 -5z m80 -20 c-3 -3 -12 -4 -19 -1 -8 3 -5 6 6 6 11 1 17 -2 13 -5z m-80
-20 c-3 -3 -12 -4 -19 -1 -8 3 -5 6 6 6 11 1 17 -2 13 -5z m80 -20 c-3 -3 -12
-4 -19 -1 -8 3 -5 6 6 6 11 1 17 -2 13 -5z m-120 -20 c-3 -3 -12 -4 -19 -1 -8
3 -5 6 6 6 11 1 17 -2 13 -5z m80 -20 c-3 -3 -12 -4 -19 -1 -8 3 -5 6 6 6 11
1 17 -2 13 -5z m-80 -20 c-3 -3 -12 -4 -19 -1 -8 3 -5 6 6 6 11 1 17 -2 13 -5z
m80 -20 c-3 -3 -12 -4 -19 -1 -8 3 -5 6 6 6 11 1 17 -2 13 -5z m-40 -40 c-3
-3 -12 -4 -19 -1 -8 3 -5 6 6 6 11 1 17 -2 13 -5z m-120 -60 c-3 -3 -12 -4
-19 -1 -8 3 -5 6 6 6 11 1 17 -2 13 -5z m80 -20 c-3 -3 -12 -4 -19 -1 -8 3 -5
6 6 6 11 1 17 -2 13 -5z m-80 -20 c-3 -3 -12 -4 -19 -1 -8 3 -5 6 6 6 11 1 17
-2 13 -5z m80 -20 c-3 -3 -12 -4 -19 -1 -8 3 -5 6 6 6 11 1 17 -2 13 -5z
m-200 -100 c-3 -3 -12 -4 -19 -1 -8 3 -5 6 6 6 11 1 17 -2 13 -5z m80 -20 c-3
-3 -12 -4 -19 -1 -8 3 -5 6 6 6 11 1 17 -2 13 -5z m8440 0 c-3 -3 -12 -4 -19
-1 -8 3 -5 6 6 6 11 1 17 -2 13 -5z m-8520 -20 c-3 -3 -12 -4 -19 -1 -8 3 -5
6 6 6 11 1 17 -2 13 -5z m80 -20 c-3 -3 -12 -4 -19 -1 -8 3 -5 6 6 6 11 1 17
-2 13 -5z m8360 -80 c-3 -3 -12 -4 -19 -1 -8 3 -5 6 6 6 11 1 17 -2 13 -5z
m-8440 -40 c-3 -3 -12 -4 -19 -1 -8 3 -5 6 6 6 11 1 17 -2 13 -5z m0 -40 c-3
-3 -12 -4 -19 -1 -8 3 -5 6 6 6 11 1 17 -2 13 -5z m-40 -40 c-3 -3 -12 -4 -19
-1 -8 3 -5 6 6 6 11 1 17 -2 13 -5z m0 -40 c-3 -3 -12 -4 -19 -1 -8 3 -5 6 6
6 11 1 17 -2 13 -5z m8240 -340 c-3 -3 -12 -4 -19 -1 -8 3 -5 6 6 6 11 1 17
-2 13 -5z m-80 -120 c-3 -3 -12 -4 -19 -1 -8 3 -5 6 6 6 11 1 17 -2 13 -5z
m-160 -220 c-3 -3 -12 -4 -19 -1 -8 3 -5 6 6 6 11 1 17 -2 13 -5z m-80 -220
c-3 -3 -12 -4 -19 -1 -8 3 -5 6 6 6 11 1 17 -2 13 -5z m6 -21 c-13 -2 -35 -2
-50 0 -16 2 -5 4 22 4 28 0 40 -2 28 -4z m-246 -319 c-3 -3 -12 -4 -19 -1 -8
3 -5 6 6 6 11 1 17 -2 13 -5z m16 -41 c-7 -2 -21 -2 -30 0 -10 3 -4 5 12 5 17
0 24 -2 18 -5z m-10 -40 c-13 -2 -35 -2 -50 0 -16 2 -5 4 22 4 28 0 40 -2 28
-4z m8 -20 c-11 -5 -11 -7 0 -14 9 -5 -5 -8 -36 -7 -39 1 -43 2 -16 5 26 3 31
7 20 14 -10 6 -6 9 16 8 17 0 24 -3 16 -6z m-94 -19 c-3 -3 -12 -4 -19 -1 -8
3 -5 6 6 6 11 1 17 -2 13 -5z m103 -29 c0 -12 -13 -15 -67 -13 l-68 1 55 6
c41 5 49 8 30 12 -20 5 -18 7 13 8 27 1 37 -3 37 -14z m-343 -511 c-3 -3 -12
-4 -19 -1 -8 3 -5 6 6 6 11 1 17 -2 13 -5z m-34 -21 c-13 -2 -35 -2 -50 0 -16
2 -5 4 22 4 28 0 40 -2 28 -4z m-30 -40 c-7 -2 -21 -2 -30 0 -10 3 -4 5 12 5
17 0 24 -2 18 -5z m-30 -40 c-7 -2 -19 -2 -25 0 -7 3 -2 5 12 5 14 0 19 -2 13
-5z m285 -14 c12 -11 20 -24 17 -30 -4 -5 -1 -9 4 -9 6 0 11 -3 11 -7 0 -5
-41 -9 -90 -11 -58 -2 -90 1 -90 7 0 6 12 24 28 41 33 37 86 41 120 9z m-295
-26 c-7 -2 -21 -2 -30 0 -10 3 -4 5 12 5 17 0 24 -2 18 -5z m-10 -20 c-7 -2
-19 -2 -25 0 -7 3 -2 5 12 5 14 0 19 -2 13 -5z m-10 -20 c-13 -2 -33 -2 -45 0
-13 2 -3 4 22 4 25 0 35 -2 23 -4z m4 -19 c-3 -3 -12 -4 -19 -1 -8 3 -5 6 6 6
11 1 17 -2 13 -5z m-9 -21 c-10 -2 -28 -2 -40 0 -13 2 -5 4 17 4 22 1 32 -1
23 -4z m12 -28 c0 -12 -12 -15 -57 -13 l-58 1 55 7 c51 5 52 6 20 11 l-35 6
38 1 c27 2 37 -2 37 -13z m-203 -271 c-3 -3 -12 -4 -19 -1 -8 3 -5 6 6 6 11 1
17 -2 13 -5z m-80 -140 c-3 -3 -12 -4 -19 -1 -8 3 -5 6 6 6 11 1 17 -2 13 -5z
m-80 -120 c-3 -3 -12 -4 -19 -1 -8 3 -5 6 6 6 11 1 17 -2 13 -5z m-240 -340
c-3 -3 -12 -4 -19 -1 -8 3 -5 6 6 6 11 1 17 -2 13 -5z m3 -149 c0 -12 -12 -15
-57 -13 l-58 2 55 3 c38 3 50 7 40 13 -13 8 -12 10 3 10 9 0 17 -7 17 -15z
m-22 -32 c-10 -2 -26 -2 -35 0 -10 3 -2 5 17 5 19 0 27 -2 18 -5z m-15 -20
c-13 -2 -35 -2 -50 0 -16 2 -5 4 22 4 28 0 40 -2 28 -4z m-25 -20 c-10 -2 -26
-2 -35 0 -10 3 -2 5 17 5 19 0 27 -2 18 -5z m-181 -219 c-3 -3 -12 -4 -19 -1
-8 3 -5 6 6 6 11 1 17 -2 13 -5z m-80 -120 c-3 -3 -12 -4 -19 -1 -8 3 -5 6 6
6 11 1 17 -2 13 -5z m-800 -1400 c-3 -3 -12 -4 -19 -1 -8 3 -5 6 6 6 11 1 17
-2 13 -5z m-80 -120 c-3 -3 -12 -4 -19 -1 -8 3 -5 6 6 6 11 1 17 -2 13 -5z
m-240 -440 c-3 -3 -12 -4 -19 -1 -8 3 -5 6 6 6 11 1 17 -2 13 -5z m-80 -120
c-3 -3 -12 -4 -19 -1 -8 3 -5 6 6 6 11 1 17 -2 13 -5z m-320 -640 c-3 -3 -12
-4 -19 -1 -8 3 -5 6 6 6 11 1 17 -2 13 -5z m-80 -120 c-3 -3 -12 -4 -19 -1 -8
3 -5 6 6 6 11 1 17 -2 13 -5z m-160 -220 c-3 -3 -12 -4 -19 -1 -8 3 -5 6 6 6
11 1 17 -2 13 -5z m-80 -120 c-3 -3 -12 -4 -19 -1 -8 3 -5 6 6 6 11 1 17 -2
13 -5z m-240 -440 c-3 -3 -12 -4 -19 -1 -8 3 -5 6 6 6 11 1 17 -2 13 -5z m-80
-120 c-3 -3 -12 -4 -19 -1 -8 3 -5 6 6 6 11 1 17 -2 13 -5z m-240 -500 c-3 -3
-12 -4 -19 -1 -8 3 -5 6 6 6 11 1 17 -2 13 -5z m-80 -120 c-3 -3 -12 -4 -19
-1 -8 3 -5 6 6 6 11 1 17 -2 13 -5z"/>
<path d="M11453 12553 c9 -2 23 -2 30 0 6 3 -1 5 -18 5 -16 0 -22 -2 -12 -5z"/>
<path d="M2448 12533 c7 -3 16 -2 19 1 4 3 -2 6 -13 5 -11 0 -14 -3 -6 -6z"/>
<path d="M11448 12533 c7 -3 16 -2 19 1 4 3 -2 6 -13 5 -11 0 -14 -3 -6 -6z"/>
<path d="M2368 12513 c7 -3 16 -2 19 1 4 3 -2 6 -13 5 -11 0 -14 -3 -6 -6z"/>
<path d="M11418 12513 c12 -2 30 -2 40 0 9 3 -1 5 -23 4 -22 0 -30 -2 -17 -4z"/>
<path d="M2448 12493 c7 -3 16 -2 19 1 4 3 -2 6 -13 5 -11 0 -14 -3 -6 -6z"/>
<path d="M11128 12493 c7 -3 16 -2 19 1 4 3 -2 6 -13 5 -11 0 -14 -3 -6 -6z"/>
<path d="M11393 12473 c9 -2 23 -2 30 0 6 3 -1 5 -18 5 -16 0 -22 -2 -12 -5z"/>
<path d="M11378 12433 c12 -2 30 -2 40 0 9 3 -1 5 -23 4 -22 0 -30 -2 -17 -4z"/>
<path d="M2248 12393 c7 -3 16 -2 19 1 4 3 -2 6 -13 5 -11 0 -14 -3 -6 -6z"/>
<path d="M11353 12393 c9 -2 23 -2 30 0 6 3 -1 5 -18 5 -16 0 -22 -2 -12 -5z"/>
<path d="M2328 12373 c7 -3 16 -2 19 1 4 3 -2 6 -13 5 -11 0 -14 -3 -6 -6z"/>
<path d="M2248 12353 c7 -3 16 -2 19 1 4 3 -2 6 -13 5 -11 0 -14 -3 -6 -6z"/>
<path d="M11338 12353 c12 -2 30 -2 40 0 9 3 -1 5 -23 4 -22 0 -30 -2 -17 -4z"/>
<path d="M2328 12333 c7 -3 16 -2 19 1 4 3 -2 6 -13 5 -11 0 -14 -3 -6 -6z"/>
<path d="M2208 12313 c7 -3 16 -2 19 1 4 3 -2 6 -13 5 -11 0 -14 -3 -6 -6z"/>
<path d="M11298 12313 c12 -2 30 -2 40 0 9 3 -1 5 -23 4 -22 0 -30 -2 -17 -4z"/>
<path d="M2288 12293 c7 -3 16 -2 19 1 4 3 -2 6 -13 5 -11 0 -14 -3 -6 -6z"/>
<path d="M2208 12273 c7 -3 16 -2 19 1 4 3 -2 6 -13 5 -11 0 -14 -3 -6 -6z"/>
<path d="M11293 12273 c9 -2 23 -2 30 0 6 3 -1 5 -18 5 -16 0 -22 -2 -12 -5z"/>
<path d="M2288 12253 c7 -3 16 -2 19 1 4 3 -2 6 -13 5 -11 0 -14 -3 -6 -6z"/>
<path d="M2168 12233 c7 -3 16 -2 19 1 4 3 -2 6 -13 5 -11 0 -14 -3 -6 -6z"/>
<path d="M11258 12233 c12 -2 30 -2 40 0 9 3 -1 5 -23 4 -22 0 -30 -2 -17 -4z"/>
<path d="M2248 12213 c7 -3 16 -2 19 1 4 3 -2 6 -13 5 -11 0 -14 -3 -6 -6z"/>
<path d="M2168 12193 c7 -3 16 -2 19 1 4 3 -2 6 -13 5 -11 0 -14 -3 -6 -6z"/>
<path d="M11248 12193 c7 -3 16 -2 19 1 4 3 -2 6 -13 5 -11 0 -14 -3 -6 -6z"/>
<path d="M2248 12173 c7 -3 16 -2 19 1 4 3 -2 6 -13 5 -11 0 -14 -3 -6 -6z"/>
<path d="M2128 12153 c7 -3 16 -2 19 1 4 3 -2 6 -13 5 -11 0 -14 -3 -6 -6z"/>
<path d="M11218 12153 c12 -2 30 -2 40 0 9 3 -1 5 -23 4 -22 0 -30 -2 -17 -4z"/>
<path d="M2208 12133 c7 -3 16 -2 19 1 4 3 -2 6 -13 5 -11 0 -14 -3 -6 -6z"/>
<path d="M11208 12133 c7 -3 16 -2 19 1 4 3 -2 6 -13 5 -11 0 -14 -3 -6 -6z"/>
<path d="M2128 12113 c7 -3 16 -2 19 1 4 3 -2 6 -13 5 -11 0 -14 -3 -6 -6z"/>
<path d="M11208 12113 c7 -3 16 -2 19 1 4 3 -2 6 -13 5 -11 0 -14 -3 -6 -6z"/>
<path d="M2208 12093 c7 -3 16 -2 19 1 4 3 -2 6 -13 5 -11 0 -14 -3 -6 -6z"/>
<path d="M11178 12073 c12 -2 30 -2 40 0 9 3 -1 5 -23 4 -22 0 -30 -2 -17 -4z"/>
<path d="M11168 12053 c7 -3 16 -2 19 1 4 3 -2 6 -13 5 -11 0 -14 -3 -6 -6z"/>
<path d="M11138 12033 c12 -2 30 -2 40 0 9 3 -1 5 -23 4 -22 0 -30 -2 -17 -4z"/>
<path d="M2048 11993 c7 -3 16 -2 19 1 4 3 -2 6 -13 5 -11 0 -14 -3 -6 -6z"/>
<path d="M10888 11993 c7 -3 16 -2 19 1 4 3 -2 6 -13 5 -11 0 -14 -3 -6 -6z"/>
<path d="M11133 11993 c9 -2 23 -2 30 0 6 3 -1 5 -18 5 -16 0 -22 -2 -12 -5z"/>
<path d="M2128 11973 c7 -3 16 -2 19 1 4 3 -2 6 -13 5 -11 0 -14 -3 -6 -6z"/>
<path d="M2048 11953 c7 -3 16 -2 19 1 4 3 -2 6 -13 5 -11 0 -14 -3 -6 -6z"/>
<path d="M11098 11953 c12 -2 30 -2 40 0 9 3 -1 5 -23 4 -22 0 -30 -2 -17 -4z"/>
<path d="M2128 11933 c7 -3 16 -2 19 1 4 3 -2 6 -13 5 -11 0 -14 -3 -6 -6z"/>
<path d="M11073 11913 c9 -2 23 -2 30 0 6 3 -1 5 -18 5 -16 0 -22 -2 -12 -5z"/>
<path d="M10808 11873 c7 -3 16 -2 19 1 4 3 -2 6 -13 5 -11 0 -14 -3 -6 -6z"/>
<path d="M11053 11873 c9 -2 23 -2 30 0 6 3 -1 5 -18 5 -16 0 -22 -2 -12 -5z"/>
<path d="M1928 11833 c7 -3 16 -2 19 1 4 3 -2 6 -13 5 -11 0 -14 -3 -6 -6z"/>
<path d="M11033 11833 c9 -2 23 -2 30 0 6 3 -1 5 -18 5 -16 0 -22 -2 -12 -5z"/>
<path d="M2008 11813 c7 -3 16 -2 19 1 4 3 -2 6 -13 5 -11 0 -14 -3 -6 -6z"/>
<path d="M1928 11793 c7 -3 16 -2 19 1 4 3 -2 6 -13 5 -11 0 -14 -3 -6 -6z"/>
<path d="M11008 11793 c7 -3 16 -2 19 1 4 3 -2 6 -13 5 -11 0 -14 -3 -6 -6z"/>
<path d="M2008 11773 c7 -3 16 -2 19 1 4 3 -2 6 -13 5 -11 0 -14 -3 -6 -6z"/>
<path d="M1888 11753 c7 -3 16 -2 19 1 4 3 -2 6 -13 5 -11 0 -14 -3 -6 -6z"/>
<path d="M10978 11753 c12 -2 30 -2 40 0 9 3 -1 5 -23 4 -22 0 -30 -2 -17 -4z"/>
<path d="M1968 11733 c7 -3 16 -2 19 1 4 3 -2 6 -13 5 -11 0 -14 -3 -6 -6z"/>
<path d="M1888 11713 c7 -3 16 -2 19 1 4 3 -2 6 -13 5 -11 0 -14 -3 -6 -6z"/>
<path d="M10968 11713 c7 -3 16 -2 19 1 4 3 -2 6 -13 5 -11 0 -14 -3 -6 -6z"/>
<path d="M1968 11693 c7 -3 16 -2 19 1 4 3 -2 6 -13 5 -11 0 -14 -3 -6 -6z"/>
<path d="M1848 11673 c7 -3 16 -2 19 1 4 3 -2 6 -13 5 -11 0 -14 -3 -6 -6z"/>
<path d="M10938 11673 c12 -2 30 -2 40 0 9 3 -1 5 -23 4 -22 0 -30 -2 -17 -4z"/>
<path d="M1928 11653 c7 -3 16 -2 19 1 4 3 -2 6 -13 5 -11 0 -14 -3 -6 -6z"/>
<path d="M1848 11633 c7 -3 16 -2 19 1 4 3 -2 6 -13 5 -11 0 -14 -3 -6 -6z"/>
<path d="M10928 11633 c7 -3 16 -2 19 1 4 3 -2 6 -13 5 -11 0 -14 -3 -6 -6z"/>
<path d="M1928 11613 c7 -3 16 -2 19 1 4 3 -2 6 -13 5 -11 0 -14 -3 -6 -6z"/>
<path d="M1808 11593 c7 -3 16 -2 19 1 4 3 -2 6 -13 5 -11 0 -14 -3 -6 -6z"/>
<path d="M10898 11593 c12 -2 30 -2 40 0 9 3 -1 5 -23 4 -22 0 -30 -2 -17 -4z"/>
<path d="M1888 11573 c7 -3 16 -2 19 1 4 3 -2 6 -13 5 -11 0 -14 -3 -6 -6z"/>
<path d="M10888 11573 c7 -3 16 -2 19 1 4 3 -2 6 -13 5 -11 0 -14 -3 -6 -6z"/>
<path d="M1808 11553 c7 -3 16 -2 19 1 4 3 -2 6 -13 5 -11 0 -14 -3 -6 -6z"/>
<path d="M10873 11553 c9 -2 23 -2 30 0 6 3 -1 5 -18 5 -16 0 -22 -2 -12 -5z"/>
<path d="M1888 11533 c7 -3 16 -2 19 1 4 3 -2 6 -13 5 -11 0 -14 -3 -6 -6z"/>
<path d="M10858 11513 c12 -2 30 -2 40 0 9 3 -1 5 -23 4 -22 0 -30 -2 -17 -4z"/>
<path d="M10818 11473 c12 -2 30 -2 40 0 9 3 -1 5 -23 4 -22 0 -30 -2 -17 -4z"/>
<path d="M1688 11433 c7 -3 16 -2 19 1 4 3 -2 6 -13 5 -11 0 -14 -3 -6 -6z"/>
<path d="M10568 11433 c7 -3 16 -2 19 1 4 3 -2 6 -13 5 -11 0 -14 -3 -6 -6z"/>
<path d="M10813 11433 c9 -2 23 -2 30 0 6 3 -1 5 -18 5 -16 0 -22 -2 -12 -5z"/>
<path d="M1688 11393 c7 -3 16 -2 19 1 4 3 -2 6 -13 5 -11 0 -14 -3 -6 -6z"/>
<path d="M10778 11393 c12 -2 30 -2 40 0 9 3 -1 5 -23 4 -22 0 -30 -2 -17 -4z"/>
<path d="M10738 11353 c12 -2 30 -2 40 0 9 3 -1 5 -23 4 -22 0 -30 -2 -17 -4z"/>
<path d="M10488 11313 c7 -3 16 -2 19 1 4 3 -2 6 -13 5 -11 0 -14 -3 -6 -6z"/>
<path d="M10733 11313 c9 -2 23 -2 30 0 6 3 -1 5 -18 5 -16 0 -22 -2 -12 -5z"/>
<path d="M1608 11273 c7 -3 16 -2 19 1 4 3 -2 6 -13 5 -11 0 -14 -3 -6 -6z"/>
<path d="M10698 11273 c12 -2 30 -2 40 0 9 3 -1 5 -23 4 -22 0 -30 -2 -17 -4z"/>
<path d="M1688 11253 c7 -3 16 -2 19 1 4 3 -2 6 -13 5 -11 0 -14 -3 -6 -6z"/>
<path d="M1608 11233 c7 -3 16 -2 19 1 4 3 -2 6 -13 5 -11 0 -14 -3 -6 -6z"/>
<path d="M10688 11233 c7 -3 16 -2 19 1 4 3 -2 6 -13 5 -11 0 -14 -3 -6 -6z"/>
<path d="M1688 11213 c7 -3 16 -2 19 1 4 3 -2 6 -13 5 -11 0 -14 -3 -6 -6z"/>
<path d="M1568 11193 c7 -3 16 -2 19 1 4 3 -2 6 -13 5 -11 0 -14 -3 -6 -6z"/>
<path d="M10658 11193 c12 -2 30 -2 40 0 9 3 -1 5 -23 4 -22 0 -30 -2 -17 -4z"/>
<path d="M1648 11173 c7 -3 16 -2 19 1 4 3 -2 6 -13 5 -11 0 -14 -3 -6 -6z"/>
<path d="M1568 11153 c7 -3 16 -2 19 1 4 3 -2 6 -13 5 -11 0 -14 -3 -6 -6z"/>
<path d="M10648 11153 c7 -3 16 -2 19 1 4 3 -2 6 -13 5 -11 0 -14 -3 -6 -6z"/>
<path d="M1648 11133 c7 -3 16 -2 19 1 4 3 -2 6 -13 5 -11 0 -14 -3 -6 -6z"/>
<path d="M1528 11113 c7 -3 16 -2 19 1 4 3 -2 6 -13 5 -11 0 -14 -3 -6 -6z"/>
<path d="M10618 11113 c12 -2 30 -2 40 0 9 3 -1 5 -23 4 -22 0 -30 -2 -17 -4z"/>
<path d="M1608 11093 c7 -3 16 -2 19 1 4 3 -2 6 -13 5 -11 0 -14 -3 -6 -6z"/>
<path d="M10328 11093 c7 -3 16 -2 19 1 4 3 -2 6 -13 5 -11 0 -14 -3 -6 -6z"/>
<path d="M10608 11093 c7 -3 16 -2 19 1 4 3 -2 6 -13 5 -11 0 -14 -3 -6 -6z"/>
<path d="M1528 11073 c7 -3 16 -2 19 1 4 3 -2 6 -13 5 -11 0 -14 -3 -6 -6z"/>
<path d="M10593 11073 c9 -2 23 -2 30 0 6 3 -1 5 -18 5 -16 0 -22 -2 -12 -5z"/>
<path d="M1608 11053 c7 -3 16 -2 19 1 4 3 -2 6 -13 5 -11 0 -14 -3 -6 -6z"/>
<path d="M1488 11033 c7 -3 16 -2 19 1 4 3 -2 6 -13 5 -11 0 -14 -3 -6 -6z"/>
<path d="M10578 11033 c12 -2 30 -2 40 0 9 3 -1 5 -23 4 -22 0 -30 -2 -17 -4z"/>
<path d="M1568 11013 c7 -3 16 -2 19 1 4 3 -2 6 -13 5 -11 0 -14 -3 -6 -6z"/>
<path d="M10568 11013 c7 -3 16 -2 19 1 4 3 -2 6 -13 5 -11 0 -14 -3 -6 -6z"/>
<path d="M1488 10993 c7 -3 16 -2 19 1 4 3 -2 6 -13 5 -11 0 -14 -3 -6 -6z"/>
<path d="M10553 10993 c9 -2 23 -2 30 0 6 3 -1 5 -18 5 -16 0 -22 -2 -12 -5z"/>
<path d="M1568 10973 c7 -3 16 -2 19 1 4 3 -2 6 -13 5 -11 0 -14 -3 -6 -6z"/>
<path d="M10248 10973 c7 -3 16 -2 19 1 4 3 -2 6 -13 5 -11 0 -14 -3 -6 -6z"/>
<path d="M10533 10953 c9 -2 23 -2 30 0 6 3 -1 5 -18 5 -16 0 -22 -2 -12 -5z"/>
<path d="M10498 10913 c12 -2 30 -2 40 0 9 3 -1 5 -23 4 -22 0 -30 -2 -17 -4z"/>
<path d="M1368 10873 c7 -3 16 -2 19 1 4 3 -2 6 -13 5 -11 0 -14 -3 -6 -6z"/>
<path d="M10473 10873 c9 -2 23 -2 30 0 6 3 -1 5 -18 5 -16 0 -22 -2 -12 -5z"/>
<path d="M1448 10853 c7 -3 16 -2 19 1 4 3 -2 6 -13 5 -11 0 -14 -3 -6 -6z"/>
<path d="M1368 10833 c7 -3 16 -2 19 1 4 3 -2 6 -13 5 -11 0 -14 -3 -6 -6z"/>
<path d="M10458 10833 c12 -2 30 -2 40 0 9 3 -1 5 -23 4 -22 0 -30 -2 -17 -4z"/>
<path d="M1448 10813 c7 -3 16 -2 19 1 4 3 -2 6 -13 5 -11 0 -14 -3 -6 -6z"/>
<path d="M10418 10793 c12 -2 30 -2 40 0 9 3 -1 5 -23 4 -22 0 -30 -2 -17 -4z"/>
<path d="M10413 10753 c9 -2 23 -2 30 0 6 3 -1 5 -18 5 -16 0 -22 -2 -12 -5z"/>
<path d="M1288 10713 c7 -3 16 -2 19 1 4 3 -2 6 -13 5 -11 0 -14 -3 -6 -6z"/>
<path d="M10378 10713 c12 -2 30 -2 40 0 9 3 -1 5 -23 4 -22 0 -30 -2 -17 -4z"/>
<path d="M1368 10693 c7 -3 16 -2 19 1 4 3 -2 6 -13 5 -11 0 -14 -3 -6 -6z"/>
<path d="M1288 10673 c7 -3 16 -2 19 1 4 3 -2 6 -13 5 -11 0 -14 -3 -6 -6z"/>
<path d="M10368 10673 c7 -3 16 -2 19 1 4 3 -2 6 -13 5 -11 0 -14 -3 -6 -6z"/>
<path d="M1368 10653 c7 -3 16 -2 19 1 4 3 -2 6 -13 5 -11 0 -14 -3 -6 -6z"/>
<path d="M1248 10633 c7 -3 16 -2 19 1 4 3 -2 6 -13 5 -11 0 -14 -3 -6 -6z"/>
<path d="M10338 10633 c12 -2 30 -2 40 0 9 3 -1 5 -23 4 -22 0 -30 -2 -17 -4z"/>
<path d="M16985 10634 c-67 -14 -175 -49 -232 -76 -46 -21 -153 -85 -163 -97
-3 -3 -21 -18 -40 -32 -46 -34 -105 -93 -139 -139 -14 -19 -29 -37 -32 -40
-27 -23 -129 -217 -129 -245 0 -7 -4 -17 -10 -20 -5 -3 -10 -19 -10 -34 0 -15
-6 -33 -12 -39 -10 -10 -14 -1013 -16 -4932 l-2 -4920 90 0 90 0 3 4843 c3
5191 0 4837 45 4984 19 60 95 193 147 255 135 162 339 268 555 288 148 14 593
13 608 -2 7 -7 12 -33 12 -60 0 -145 115 -272 278 -307 73 -15 2243 -16 2327
0 156 29 262 136 280 284 13 107 -19 98 349 92 324 -6 343 -8 478 -50 173 -54
363 -222 450 -398 58 -118 69 -149 80 -224 8 -49 12 -1506 15 -4887 l3 -4818
95 0 95 0 0 4878 c-1 2899 -5 4893 -10 4917 -5 22 -12 54 -15 70 -4 17 -10 39
-15 50 -4 11 -17 43 -28 72 -81 208 -269 405 -483 507 -42 20 -83 36 -92 36
-9 0 -18 4 -21 9 -3 5 -20 11 -38 14 -18 3 -53 10 -78 16 -43 10 -4387 14
-4435 5z"/>
<path d="M1328 10613 c7 -3 16 -2 19 1 4 3 -2 6 -13 5 -11 0 -14 -3 -6 -6z"/>
<path d="M10328 10613 c7 -3 16 -2 19 1 4 3 -2 6 -13 5 -11 0 -14 -3 -6 -6z"/>
<path d="M1248 10593 c7 -3 16 -2 19 1 4 3 -2 6 -13 5 -11 0 -14 -3 -6 -6z"/>
<path d="M10328 10593 c7 -3 16 -2 19 1 4 3 -2 6 -13 5 -11 0 -14 -3 -6 -6z"/>
<path d="M1328 10573 c7 -3 16 -2 19 1 4 3 -2 6 -13 5 -11 0 -14 -3 -6 -6z"/>
<path d="M10298 10553 c12 -2 30 -2 40 0 9 3 -1 5 -23 4 -22 0 -30 -2 -17 -4z"/>
<path d="M10288 10533 c7 -3 16 -2 19 1 4 3 -2 6 -13 5 -11 0 -14 -3 -6 -6z"/>
<path d="M10273 10513 c9 -2 23 -2 30 0 6 3 -1 5 -18 5 -16 0 -22 -2 -12 -5z"/>
<path d="M1168 10473 c7 -3 16 -2 19 1 4 3 -2 6 -13 5 -11 0 -14 -3 -6 -6z"/>
<path d="M10253 10473 c9 -2 23 -2 30 0 6 3 -1 5 -18 5 -16 0 -22 -2 -12 -5z"/>
<path d="M1248 10453 c7 -3 16 -2 19 1 4 3 -2 6 -13 5 -11 0 -14 -3 -6 -6z"/>
<path d="M10248 10453 c7 -3 16 -2 19 1 4 3 -2 6 -13 5 -11 0 -14 -3 -6 -6z"/>
<path d="M1168 10433 c7 -3 16 -2 19 1 4 3 -2 6 -13 5 -11 0 -14 -3 -6 -6z"/>
<path d="M10218 10433 c12 -2 30 -2 40 0 9 3 -1 5 -23 4 -22 0 -30 -2 -17 -4z"/>
<path d="M1248 10413 c7 -3 16 -2 19 1 4 3 -2 6 -13 5 -11 0 -14 -3 -6 -6z"/>
<path d="M10193 10393 c9 -2 23 -2 30 0 6 3 -1 5 -18 5 -16 0 -22 -2 -12 -5z"/>
<path d="M10178 10353 c12 -2 30 -2 40 0 9 3 -1 5 -23 4 -22 0 -30 -2 -17 -4z"/>
<path d="M1048 10313 c7 -3 16 -2 19 1 4 3 -2 6 -13 5 -11 0 -14 -3 -6 -6z"/>
<path d="M10153 10313 c9 -2 23 -2 30 0 6 3 -1 5 -18 5 -16 0 -22 -2 -12 -5z"/>
<path d="M1128 10293 c7 -3 16 -2 19 1 4 3 -2 6 -13 5 -11 0 -14 -3 -6 -6z"/>
<path d="M1048 10273 c7 -3 16 -2 19 1 4 3 -2 6 -13 5 -11 0 -14 -3 -6 -6z"/>
<path d="M10133 10273 c9 -2 23 -2 30 0 6 3 -1 5 -18 5 -16 0 -22 -2 -12 -5z"/>
<path d="M1128 10253 c7 -3 16 -2 19 1 4 3 -2 6 -13 5 -11 0 -14 -3 -6 -6z"/>
<path d="M1008 10233 c7 -3 16 -2 19 1 4 3 -2 6 -13 5 -11 0 -14 -3 -6 -6z"/>
<path d="M10098 10233 c12 -2 30 -2 40 0 9 3 -1 5 -23 4 -22 0 -30 -2 -17 -4z"/>
<path d="M1088 10213 c7 -3 16 -2 19 1 4 3 -2 6 -13 5 -11 0 -14 -3 -6 -6z"/>
<path d="M1008 10193 c7 -3 16 -2 19 1 4 3 -2 6 -13 5 -11 0 -14 -3 -6 -6z"/>
<path d="M10088 10193 c7 -3 16 -2 19 1 4 3 -2 6 -13 5 -11 0 -14 -3 -6 -6z"/>
<path d="M1088 10173 c7 -3 16 -2 19 1 4 3 -2 6 -13 5 -11 0 -14 -3 -6 -6z"/>
<path d="M968 10153 c7 -3 16 -2 19 1 4 3 -2 6 -13 5 -11 0 -14 -3 -6 -6z"/>
<path d="M10058 10153 c12 -2 30 -2 40 0 9 3 -1 5 -23 4 -22 0 -30 -2 -17 -4z"/>
<path d="M1048 10133 c7 -3 16 -2 19 1 4 3 -2 6 -13 5 -11 0 -14 -3 -6 -6z"/>
<path d="M968 10113 c7 -3 16 -2 19 1 4 3 -2 6 -13 5 -11 0 -14 -3 -6 -6z"/>
<path d="M10048 10113 c7 -3 16 -2 19 1 4 3 -2 6 -13 5 -11 0 -14 -3 -6 -6z"/>
<path d="M1048 10093 c7 -3 16 -2 19 1 4 3 -2 6 -13 5 -11 0 -14 -3 -6 -6z"/>
<path d="M928 10073 c7 -3 16 -2 19 1 4 3 -2 6 -13 5 -11 0 -14 -3 -6 -6z"/>
<path d="M10018 10073 c12 -2 30 -2 40 0 9 3 -1 5 -23 4 -22 0 -30 -2 -17 -4z"/>
<path d="M1008 10053 c7 -3 16 -2 19 1 4 3 -2 6 -13 5 -11 0 -14 -3 -6 -6z"/>
<path d="M10008 10053 c7 -3 16 -2 19 1 4 3 -2 6 -13 5 -11 0 -14 -3 -6 -6z"/>
<path d="M928 10033 c7 -3 16 -2 19 1 4 3 -2 6 -13 5 -11 0 -14 -3 -6 -6z"/>
<path d="M10008 10033 c7 -3 16 -2 19 1 4 3 -2 6 -13 5 -11 0 -14 -3 -6 -6z"/>
<path d="M1008 10013 c7 -3 16 -2 19 1 4 3 -2 6 -13 5 -11 0 -14 -3 -6 -6z"/>
<path d="M9978 9993 c12 -2 30 -2 40 0 9 3 -1 5 -23 4 -22 0 -30 -2 -17 -4z"/>
<path d="M9968 9973 c7 -3 16 -2 19 1 4 3 -2 6 -13 5 -11 0 -14 -3 -6 -6z"/>
<path d="M9938 9953 c12 -2 30 -2 40 0 9 3 -1 5 -23 4 -22 0 -30 -2 -17 -4z"/>
<path d="M9688 9913 c7 -3 16 -2 19 1 4 3 -2 6 -13 5 -11 0 -14 -3 -6 -6z"/>
<path d="M9933 9913 c9 -2 23 -2 30 0 6 3 -1 5 -18 5 -16 0 -22 -2 -12 -5z"/>
<path d="M928 9893 c7 -3 16 -2 19 1 4 3 -2 6 -13 5 -11 0 -14 -3 -6 -6z"/>
<path d="M9898 9873 c12 -2 30 -2 40 0 9 3 -1 5 -23 4 -22 0 -30 -2 -17 -4z"/>
<path d="M9873 9833 c9 -2 23 -2 30 0 6 3 -1 5 -18 5 -16 0 -22 -2 -12 -5z"/>
<path d="M9608 9793 c7 -3 16 -2 19 1 4 3 -2 6 -13 5 -11 0 -14 -3 -6 -6z"/>
<path d="M9853 9793 c9 -2 23 -2 30 0 6 3 -1 5 -18 5 -16 0 -22 -2 -12 -5z"/>
<path d="M18391 9755 c-88 -51 -121 -112 -121 -222 0 -95 21 -147 76 -190 70
-54 61 -53 401 -51 195 0 293 4 253 8 -36 4 -103 8 -149 9 -69 1 -82 3 -70 14
8 6 25 26 39 42 14 17 18 24 10 18 -8 -7 -40 -13 -71 -13 -52 0 -61 4 -93 34
-29 27 -36 41 -36 73 0 73 83 170 103 121 3 -7 6 13 6 45 1 50 3 57 21 57 11
0 20 5 20 10 0 6 -5 10 -12 10 -6 0 -8 3 -5 7 4 3 -1 12 -10 18 -15 11 -5 14
62 20 136 11 118 13 -135 14 -244 1 -245 1 -289 -24z"/>
<path d="M728 9753 c7 -3 16 -2 19 1 4 3 -2 6 -13 5 -11 0 -14 -3 -6 -6z"/>
<path d="M9818 9753 c12 -2 30 -2 40 0 9 3 -1 5 -23 4 -22 0 -30 -2 -17 -4z"/>
<path d="M808 9733 c7 -3 16 -2 19 1 4 3 -2 6 -13 5 -11 0 -14 -3 -6 -6z"/>
<path d="M728 9713 c7 -3 16 -2 19 1 4 3 -2 6 -13 5 -11 0 -14 -3 -6 -6z"/>
<path d="M9808 9713 c7 -3 16 -2 19 1 4 3 -2 6 -13 5 -11 0 -14 -3 -6 -6z"/>
<path d="M808 9693 c7 -3 16 -2 19 1 4 3 -2 6 -13 5 -11 0 -14 -3 -6 -6z"/>
<path d="M688 9673 c7 -3 16 -2 19 1 4 3 -2 6 -13 5 -11 0 -14 -3 -6 -6z"/>
<path d="M9778 9673 c12 -2 30 -2 40 0 9 3 -1 5 -23 4 -22 0 -30 -2 -17 -4z"/>
<path d="M18810 9675 c0 -5 5 -17 10 -25 5 -8 10 -10 10 -5 0 6 -5 17 -10 25
-5 8 -10 11 -10 5z"/>
<path d="M768 9653 c7 -3 16 -2 19 1 4 3 -2 6 -13 5 -11 0 -14 -3 -6 -6z"/>
<path d="M688 9633 c7 -3 16 -2 19 1 4 3 -2 6 -13 5 -11 0 -14 -3 -6 -6z"/>
<path d="M9768 9633 c7 -3 16 -2 19 1 4 3 -2 6 -13 5 -11 0 -14 -3 -6 -6z"/>
<path d="M768 9613 c7 -3 16 -2 19 1 4 3 -2 6 -13 5 -11 0 -14 -3 -6 -6z"/>
<path d="M648 9593 c7 -3 16 -2 19 1 4 3 -2 6 -13 5 -11 0 -14 -3 -6 -6z"/>
<path d="M9738 9593 c12 -2 30 -2 40 0 9 3 -1 5 -23 4 -22 0 -30 -2 -17 -4z"/>
<path d="M728 9573 c7 -3 16 -2 19 1 4 3 -2 6 -13 5 -11 0 -14 -3 -6 -6z"/>
<path d="M9448 9573 c7 -3 16 -2 19 1 4 3 -2 6 -13 5 -11 0 -14 -3 -6 -6z"/>
<path d="M648 9553 c7 -3 16 -2 19 1 4 3 -2 6 -13 5 -11 0 -14 -3 -6 -6z"/>
<path d="M9728 9553 c7 -3 16 -2 19 1 4 3 -2 6 -13 5 -11 0 -14 -3 -6 -6z"/>
<path d="M728 9533 c7 -3 16 -2 19 1 4 3 -2 6 -13 5 -11 0 -14 -3 -6 -6z"/>
<path d="M608 9513 c7 -3 16 -2 19 1 4 3 -2 6 -13 5 -11 0 -14 -3 -6 -6z"/>
<path d="M9698 9513 c12 -2 30 -2 40 0 9 3 -1 5 -23 4 -22 0 -30 -2 -17 -4z"/>
<path d="M688 9493 c7 -3 16 -2 19 1 4 3 -2 6 -13 5 -11 0 -14 -3 -6 -6z"/>
<path d="M9688 9493 c7 -3 16 -2 19 1 4 3 -2 6 -13 5 -11 0 -14 -3 -6 -6z"/>
<path d="M608 9473 c7 -3 16 -2 19 1 4 3 -2 6 -13 5 -11 0 -14 -3 -6 -6z"/>
<path d="M9673 9473 c9 -2 23 -2 30 0 6 3 -1 5 -18 5 -16 0 -22 -2 -12 -5z"/>
<path d="M688 9453 c7 -3 16 -2 19 1 4 3 -2 6 -13 5 -11 0 -14 -3 -6 -6z"/>
<path d="M9368 9453 c7 -3 16 -2 19 1 4 3 -2 6 -13 5 -11 0 -14 -3 -6 -6z"/>
<path d="M9658 9433 c12 -2 30 -2 40 0 9 3 -1 5 -23 4 -22 0 -30 -2 -17 -4z"/>
<path d="M9618 9393 c12 -2 30 -2 40 0 9 3 -1 5 -23 4 -22 0 -30 -2 -17 -4z"/>
<path d="M488 9353 c7 -3 16 -2 19 1 4 3 -2 6 -13 5 -11 0 -14 -3 -6 -6z"/>
<path d="M9613 9353 c9 -2 23 -2 30 0 6 3 -1 5 -18 5 -16 0 -22 -2 -12 -5z"/>
<path d="M568 9333 c7 -3 16 -2 19 1 4 3 -2 6 -13 5 -11 0 -14 -3 -6 -6z"/>
<path d="M488 9313 c7 -3 16 -2 19 1 4 3 -2 6 -13 5 -11 0 -14 -3 -6 -6z"/>
<path d="M9578 9313 c12 -2 30 -2 40 0 9 3 -1 5 -23 4 -22 0 -30 -2 -17 -4z"/>
<path d="M568 9293 c7 -3 16 -2 19 1 4 3 -2 6 -13 5 -11 0 -14 -3 -6 -6z"/>
<path d="M9538 9273 c12 -2 30 -2 40 0 9 3 -1 5 -23 4 -22 0 -30 -2 -17 -4z"/>
<path d="M9288 9233 c7 -3 16 -2 19 1 4 3 -2 6 -13 5 -11 0 -14 -3 -6 -6z"/>
<path d="M9533 9233 c9 -2 23 -2 30 0 6 3 -1 5 -18 5 -16 0 -22 -2 -12 -5z"/>
<path d="M408 9193 c7 -3 16 -2 19 1 4 3 -2 6 -13 5 -11 0 -14 -3 -6 -6z"/>
<path d="M9498 9193 c12 -2 30 -2 40 0 9 3 -1 5 -23 4 -22 0 -30 -2 -17 -4z"/>
<path d="M488 9173 c7 -3 16 -2 19 1 4 3 -2 6 -13 5 -11 0 -14 -3 -6 -6z"/>
<path d="M408 9153 c7 -3 16 -2 19 1 4 3 -2 6 -13 5 -11 0 -14 -3 -6 -6z"/>
<path d="M9488 9153 c7 -3 16 -2 19 1 4 3 -2 6 -13 5 -11 0 -14 -3 -6 -6z"/>
<path d="M488 9133 c7 -3 16 -2 19 1 4 3 -2 6 -13 5 -11 0 -14 -3 -6 -6z"/>
<path d="M368 9113 c7 -3 16 -2 19 1 4 3 -2 6 -13 5 -11 0 -14 -3 -6 -6z"/>
<path d="M9458 9113 c12 -2 30 -2 40 0 9 3 -1 5 -23 4 -22 0 -30 -2 -17 -4z"/>
<path d="M448 9093 c7 -3 16 -2 19 1 4 3 -2 6 -13 5 -11 0 -14 -3 -6 -6z"/>
<path d="M368 9073 c7 -3 16 -2 19 1 4 3 -2 6 -13 5 -11 0 -14 -3 -6 -6z"/>
<path d="M9448 9073 c7 -3 16 -2 19 1 4 3 -2 6 -13 5 -11 0 -14 -3 -6 -6z"/>
<path d="M448 9053 c7 -3 16 -2 19 1 4 3 -2 6 -13 5 -11 0 -14 -3 -6 -6z"/>
<path d="M18815 9041 c-8 -15 -11 -13 46 -39 48 -23 76 -60 66 -86 -3 -8 -28
-25 -54 -38 -28 -13 -56 -37 -68 -55 -20 -33 -37 -43 -34 -20 2 20 -1 31 -16
51 -14 19 -15 19 -35 1 -11 -10 -20 -24 -20 -30 0 -23 34 -53 67 -60 27 -5 37
-2 59 20 22 22 32 26 60 20 45 -8 76 21 68 65 -8 36 20 85 43 76 9 -4 17 1 20
14 4 15 14 20 39 20 22 0 37 6 40 15 8 20 24 19 41 -2 12 -16 13 -15 11 12 -3
28 -5 30 -48 31 -25 0 -97 4 -161 9 -87 6 -118 5 -124 -4z"/>
<path d="M408 9033 c7 -3 16 -2 19 1 4 3 -2 6 -13 5 -11 0 -14 -3 -6 -6z"/>
<path d="M328 9013 c7 -3 16 -2 19 1 4 3 -2 6 -13 5 -11 0 -14 -3 -6 -6z"/>
<path d="M9408 9013 c7 -3 16 -2 19 1 4 3 -2 6 -13 5 -11 0 -14 -3 -6 -6z"/>
<path d="M408 8993 c7 -3 16 -2 19 1 4 3 -2 6 -13 5 -11 0 -14 -3 -6 -6z"/>
<path d="M288 8973 c7 -3 16 -2 19 1 4 3 -2 6 -13 5 -11 0 -14 -3 -6 -6z"/>
<path d="M9378 8973 c12 -2 30 -2 40 0 9 3 -1 5 -23 4 -22 0 -30 -2 -17 -4z"/>
<path d="M368 8953 c7 -3 16 -2 19 1 4 3 -2 6 -13 5 -11 0 -14 -3 -6 -6z"/>
<path d="M288 8933 c7 -3 16 -2 19 1 4 3 -2 6 -13 5 -11 0 -14 -3 -6 -6z"/>
<path d="M9368 8933 c7 -3 16 -2 19 1 4 3 -2 6 -13 5 -11 0 -14 -3 -6 -6z"/>
<path d="M368 8913 c7 -3 16 -2 19 1 4 3 -2 6 -13 5 -11 0 -14 -3 -6 -6z"/>
<path d="M19046 8913 c-12 -13 -6 -43 10 -43 12 0 15 -6 10 -22 -3 -13 -6 -41
-7 -63 -2 -30 -3 -33 -6 -12 -3 21 -10 27 -29 27 -21 0 -24 -5 -24 -33 0 -21
8 -41 19 -51 19 -17 18 -56 -1 -56 -6 0 -8 -10 -5 -21 3 -12 -1 -32 -10 -46
-16 -23 -14 -90 3 -165 7 -33 -11 -38 -33 -10 -13 16 -14 15 -8 -8 4 -14 9
-39 12 -57 3 -18 11 -38 19 -44 8 -6 14 -20 14 -30 0 -10 12 -44 27 -76 19
-40 30 -83 34 -138 12 -129 15 -138 66 -169 46 -27 62 -24 63 11 0 6 16 40 36
75 20 34 43 74 50 88 8 14 14 55 14 93 0 37 4 67 9 67 5 0 19 -12 30 -26 38
-48 24 -157 -26 -218 -19 -23 -23 -36 -18 -60 3 -17 9 -53 12 -80 5 -44 11
-54 74 -116 38 -37 69 -73 69 -80 0 -8 10 -24 21 -36 29 -31 19 -56 -19 -48
-17 4 -32 1 -36 -5 -7 -11 8 -64 31 -110 6 -13 9 -30 6 -37 -4 -11 -13 -10
-42 8 -20 12 -44 30 -54 40 -10 10 -24 18 -32 18 -7 0 -27 8 -44 17 -29 17
-31 17 -84 -9 -29 -14 -66 -42 -83 -62 -16 -20 -58 -64 -93 -99 -35 -34 -71
-78 -81 -97 -17 -34 -35 -110 -27 -110 3 0 25 12 51 26 25 14 46 24 47 22 0
-1 2 -50 5 -108 5 -123 10 -150 27 -150 6 0 43 -16 82 -35 64 -32 105 -38 105
-14 0 5 9 9 19 9 11 0 29 13 41 29 23 33 72 61 106 61 33 0 44 28 44 115 0 97
15 96 51 -6 29 -82 73 -175 96 -201 19 -22 56 -124 90 -248 54 -201 59 -239
39 -316 -9 -34 -16 -78 -16 -98 0 -20 -6 -45 -12 -56 -11 -16 -9 -22 7 -34 20
-14 20 -15 -1 -38 -29 -31 -20 -48 26 -48 46 0 59 -14 29 -30 -32 -18 -59 -43
-59 -57 0 -7 16 -15 35 -19 40 -7 41 -10 18 -56 -9 -18 -20 -40 -24 -49 -5
-11 -1 -23 11 -34 11 -10 22 -26 25 -36 8 -23 28 -24 45 -3 10 11 27 14 63 12
33 -2 51 1 54 10 3 6 -2 12 -10 12 -18 0 -77 47 -77 62 0 5 9 7 20 3 15 -5 21
0 26 22 4 15 16 34 26 41 39 28 15 72 -39 72 -36 0 -45 19 -13 27 30 8 20 34
-17 47 -17 6 -35 14 -39 18 -4 4 14 26 39 49 26 22 45 44 42 49 -2 4 -18 10
-33 13 -27 6 -30 10 -35 64 -4 32 -14 92 -22 133 -9 41 -20 100 -24 130 -5 30
-15 75 -22 99 -9 34 -10 46 -1 49 13 4 16 164 3 195 -6 17 -8 17 -34 -3 l-26
-21 -5 23 c-13 63 -16 129 -6 123 5 -3 10 -12 10 -18 0 -7 9 -25 21 -42 l20
-30 -3 45 c-5 58 38 180 69 195 11 6 28 17 36 24 9 7 33 11 54 9 37 -3 38 -2
41 31 2 18 -5 56 -16 85 -35 89 -47 171 -32 216 12 36 11 43 -14 92 -15 29
-38 62 -51 74 -12 12 -26 32 -30 45 -4 13 -30 68 -56 123 -27 54 -49 111 -49
125 0 14 -14 46 -30 70 -17 24 -30 49 -30 56 0 7 -8 23 -18 36 -11 13 -22 47
-25 76 -3 28 -10 60 -15 70 -22 41 -62 155 -62 174 0 33 -75 241 -103 284 -14
22 -43 61 -64 87 -32 39 -42 46 -64 42 -26 -5 -59 16 -59 36 0 10 -52 40 -70
40 -6 0 -16 -11 -22 -25 -13 -30 -38 -33 -38 -6 0 21 -13 34 -24 24z m54 -293
c0 -5 -4 -10 -10 -10 -5 0 -10 5 -10 10 0 6 5 10 10 10 6 0 10 -4 10 -10z"/>
<path d="M9338 8893 c12 -2 30 -2 40 0 9 3 -1 5 -23 4 -22 0 -30 -2 -17 -4z"/>
<path d="M9048 8873 c7 -3 16 -2 19 1 4 3 -2 6 -13 5 -11 0 -14 -3 -6 -6z"/>
<path d="M9328 8873 c7 -3 16 -2 19 1 4 3 -2 6 -13 5 -11 0 -14 -3 -6 -6z"/>
<path d="M9313 8853 c9 -2 23 -2 30 0 6 3 -1 5 -18 5 -16 0 -22 -2 -12 -5z"/>
<path d="M208 8813 c7 -3 16 -2 19 1 4 3 -2 6 -13 5 -11 0 -14 -3 -6 -6z"/>
<path d="M9298 8813 c12 -2 30 -2 40 0 9 3 -1 5 -23 4 -22 0 -30 -2 -17 -4z"/>
<path d="M288 8793 c7 -3 16 -2 19 1 4 3 -2 6 -13 5 -11 0 -14 -3 -6 -6z"/>
<path d="M9288 8793 c7 -3 16 -2 19 1 4 3 -2 6 -13 5 -11 0 -14 -3 -6 -6z"/>
<path d="M208 8773 c7 -3 16 -2 19 1 4 3 -2 6 -13 5 -11 0 -14 -3 -6 -6z"/>
<path d="M9273 8773 c9 -2 23 -2 30 0 6 3 -1 5 -18 5 -16 0 -22 -2 -12 -5z"/>
<path d="M288 8753 c7 -3 16 -2 19 1 4 3 -2 6 -13 5 -11 0 -14 -3 -6 -6z"/>
<path d="M8968 8753 c7 -3 16 -2 19 1 4 3 -2 6 -13 5 -11 0 -14 -3 -6 -6z"/>
<path d="M9248 8733 c7 -3 16 -2 19 1 4 3 -2 6 -13 5 -11 0 -14 -3 -6 -6z"/>
<path d="M9218 8693 c12 -2 30 -2 40 0 9 3 -1 5 -23 4 -22 0 -30 -2 -17 -4z"/>
<path d="M88 8653 c7 -3 16 -2 19 1 4 3 -2 6 -13 5 -11 0 -14 -3 -6 -6z"/>
<path d="M9193 8653 c9 -2 23 -2 30 0 6 3 -1 5 -18 5 -16 0 -22 -2 -12 -5z"/>
<path d="M168 8633 c7 -3 16 -2 19 1 4 3 -2 6 -13 5 -11 0 -14 -3 -6 -6z"/>
<path d="M88 8613 c7 -3 16 -2 19 1 4 3 -2 6 -13 5 -11 0 -14 -3 -6 -6z"/>
<path d="M9178 8613 c12 -2 30 -2 40 0 9 3 -1 5 -23 4 -22 0 -30 -2 -17 -4z"/>
<path d="M168 8593 c7 -3 16 -2 19 1 4 3 -2 6 -13 5 -11 0 -14 -3 -6 -6z"/>
<path d="M9138 8573 c12 -2 30 -2 40 0 9 3 -1 5 -23 4 -22 0 -30 -2 -17 -4z"/>
<path d="M9133 8533 c9 -2 23 -2 30 0 6 3 -1 5 -18 5 -16 0 -22 -2 -12 -5z"/>
<path d="M9098 8493 c12 -2 30 -2 40 0 9 3 -1 5 -23 4 -22 0 -30 -2 -17 -4z"/>
<path d="M88 8473 c7 -3 16 -2 19 1 4 3 -2 6 -13 5 -11 0 -14 -3 -6 -6z"/>
<path d="M9088 8453 c7 -3 16 -2 19 1 4 3 -2 6 -13 5 -11 0 -14 -3 -6 -6z"/>
<path d="M88 8433 c7 -3 16 -2 19 1 4 3 -2 6 -13 5 -11 0 -14 -3 -6 -6z"/>
<path d="M9058 8413 c12 -2 30 -2 40 0 9 3 -1 5 -23 4 -22 0 -30 -2 -17 -4z"/>
<path d="M48 8393 c7 -3 16 -2 19 1 4 3 -2 6 -13 5 -11 0 -14 -3 -6 -6z"/>
<path d="M9048 8393 c7 -3 16 -2 19 1 4 3 -2 6 -13 5 -11 0 -14 -3 -6 -6z"/>
<path d="M9048 8373 c7 -3 16 -2 19 1 4 3 -2 6 -13 5 -11 0 -14 -3 -6 -6z"/>
<path d="M48 8353 c7 -3 16 -2 19 1 4 3 -2 6 -13 5 -11 0 -14 -3 -6 -6z"/>
<path d="M9018 8333 c12 -2 30 -2 40 0 9 3 -1 5 -23 4 -22 0 -30 -2 -17 -4z"/>
<path d="M9008 8313 c7 -3 16 -2 19 1 4 3 -2 6 -13 5 -11 0 -14 -3 -6 -6z"/>
<path d="M8978 8293 c12 -2 30 -2 40 0 9 3 -1 5 -23 4 -22 0 -30 -2 -17 -4z"/>
<path d="M8728 8253 c7 -3 16 -2 19 1 4 3 -2 6 -13 5 -11 0 -14 -3 -6 -6z"/>
<path d="M8973 8253 c9 -2 23 -2 30 0 6 3 -1 5 -18 5 -16 0 -22 -2 -12 -5z"/>
<path d="M8968 8233 c7 -3 16 -2 19 1 4 3 -2 6 -13 5 -11 0 -14 -3 -6 -6z"/>
<path d="M8938 8213 c12 -2 30 -2 40 0 9 3 -1 5 -23 4 -22 0 -30 -2 -17 -4z"/>
<path d="M8913 8173 c9 -2 23 -2 30 0 6 3 -1 5 -18 5 -16 0 -22 -2 -12 -5z"/>
<path d="M8648 8133 c7 -3 16 -2 19 1 4 3 -2 6 -13 5 -11 0 -14 -3 -6 -6z"/>
<path d="M8898 8133 c12 -2 30 -2 40 0 9 3 -1 5 -23 4 -22 0 -30 -2 -17 -4z"/>
<path d="M8873 8093 c9 -2 23 -2 30 0 6 3 -1 5 -18 5 -16 0 -22 -2 -12 -5z"/>
<path d="M8853 8053 c9 -2 23 -2 30 0 6 3 -1 5 -18 5 -16 0 -22 -2 -12 -5z"/>
<path d="M16512 7900 c0 -108 3 -153 8 -130 12 49 13 153 2 230 -8 55 -9 40
-10 -100z"/>
<path d="M8818 8013 c12 -2 30 -2 40 0 9 3 -1 5 -23 4 -22 0 -30 -2 -17 -4z"/>
<path d="M8808 7973 c7 -3 16 -2 19 1 4 3 -2 6 -13 5 -11 0 -14 -3 -6 -6z"/>
<path d="M8778 7933 c12 -2 30 -2 40 0 9 3 -1 5 -23 4 -22 0 -30 -2 -17 -4z"/>
<path d="M8768 7893 c7 -3 16 -2 19 1 4 3 -2 6 -13 5 -11 0 -14 -3 -6 -6z"/>
<path d="M8738 7853 c12 -2 30 -2 40 0 9 3 -1 5 -23 4 -22 0 -30 -2 -17 -4z"/>
<path d="M19222 7851 c-19 -12 -11 -41 16 -59 21 -14 22 -13 22 10 0 33 -21
60 -38 49z"/>
<path d="M8728 7833 c7 -3 16 -2 19 1 4 3 -2 6 -13 5 -11 0 -14 -3 -6 -6z"/>
<path d="M8713 7813 c9 -2 23 -2 30 0 6 3 -1 5 -18 5 -16 0 -22 -2 -12 -5z"/>
<path d="M8698 7773 c12 -2 30 -2 40 0 9 3 -1 5 -23 4 -22 0 -30 -2 -17 -4z"/>
<path d="M8658 7733 c12 -2 30 -2 40 0 9 3 -1 5 -23 4 -22 0 -30 -2 -17 -4z"/>
<path d="M8408 7693 c7 -3 16 -2 19 1 4 3 -2 6 -13 5 -11 0 -14 -3 -6 -6z"/>
<path d="M8653 7693 c9 -2 23 -2 30 0 6 3 -1 5 -18 5 -16 0 -22 -2 -12 -5z"/>
<path d="M8618 7653 c12 -2 30 -2 40 0 9 3 -1 5 -23 4 -22 0 -30 -2 -17 -4z"/>
<path d="M8593 7613 c9 -2 23 -2 30 0 6 3 -1 5 -18 5 -16 0 -22 -2 -12 -5z"/>
<path d="M8328 7573 c7 -3 16 -2 19 1 4 3 -2 6 -13 5 -11 0 -14 -3 -6 -6z"/>
<path d="M8573 7573 c9 -2 23 -2 30 0 6 3 -1 5 -18 5 -16 0 -22 -2 -12 -5z"/>
<path d="M8568 7553 c7 -3 16 -2 19 1 4 3 -2 6 -13 5 -11 0 -14 -3 -6 -6z"/>
<path d="M8538 7533 c12 -2 30 -2 40 0 9 3 -1 5 -23 4 -22 0 -30 -2 -17 -4z"/>
<path d="M8528 7493 c7 -3 16 -2 19 1 4 3 -2 6 -13 5 -11 0 -14 -3 -6 -6z"/>
<path d="M8498 7453 c12 -2 30 -2 40 0 9 3 -1 5 -23 4 -22 0 -30 -2 -17 -4z"/>
<path d="M8488 7413 c7 -3 16 -2 19 1 4 3 -2 6 -13 5 -11 0 -14 -3 -6 -6z"/>
<path d="M8458 7373 c12 -2 30 -2 40 0 9 3 -1 5 -23 4 -22 0 -30 -2 -17 -4z"/>
<path d="M8168 7353 c7 -3 16 -2 19 1 4 3 -2 6 -13 5 -11 0 -14 -3 -6 -6z"/>
<path d="M17472 7342 c4 -24 -50 -90 -92 -112 -19 -10 -61 -21 -93 -25 -31 -4
-57 -11 -57 -15 0 -5 -24 -20 -52 -33 -54 -25 -240 -182 -252 -212 -8 -22 9
-51 43 -71 32 -19 51 -63 51 -122 0 -22 5 -44 10 -47 6 -3 10 -20 10 -36 0
-28 38 -100 60 -114 5 -3 10 -16 10 -29 0 -26 28 -56 53 -56 10 0 17 -10 19
-27 3 -27 4 -28 70 -28 36 0 70 -3 74 -7 4 -5 2 -8 -4 -8 -7 0 -12 -7 -12 -16
0 -11 5 -14 18 -9 90 38 155 18 160 -49 4 -41 23 -56 48 -36 8 7 59 19 112 26
93 12 98 11 119 -8 12 -11 27 -17 33 -13 25 15 84 24 101 14 10 -5 25 -24 34
-42 9 -19 34 -52 56 -75 32 -34 38 -47 33 -67 -11 -43 23 -30 47 18 33 66 40
96 26 117 -9 16 -7 27 12 60 16 29 21 49 16 70 -4 20 -1 37 9 52 35 50 3 68
-75 43 -28 -9 -53 -14 -56 -11 -3 3 8 21 25 41 19 21 29 41 25 51 -3 9 8 31
27 55 l32 41 -21 15 c-22 15 -22 15 16 45 21 17 53 37 71 46 35 17 41 36 15
50 -10 6 -14 16 -9 27 4 10 0 25 -8 34 -14 16 -16 20 -16 41 0 6 -6 10 -14 10
-27 0 -39 27 -27 61 9 27 8 33 -15 54 -14 13 -38 25 -52 27 -24 3 -27 7 -28
42 0 37 -3 40 -52 62 -39 17 -55 32 -71 61 -11 22 -33 54 -51 72 -28 31 -34
33 -77 27 -25 -3 -52 -11 -59 -17 -8 -6 -24 -8 -36 -4 -13 3 -54 9 -93 11 -47
3 -72 9 -78 19 -11 21 -39 19 -35 -3z"/>
<path d="M8433 7333 c9 -2 23 -2 30 0 6 3 -1 5 -18 5 -16 0 -22 -2 -12 -5z"/>
<path d="M8418 7293 c12 -2 30 -2 40 0 9 3 -1 5 -23 4 -22 0 -30 -2 -17 -4z"/>
<path d="M8408 7273 c7 -3 16 -2 19 1 4 3 -2 6 -13 5 -11 0 -14 -3 -6 -6z"/>
<path d="M11280 7159 l0 -123 -27 26 c-37 35 -73 48 -136 48 -127 -1 -200 -98
-200 -265 0 -171 73 -264 206 -265 63 0 87 9 130 48 l27 26 0 -32 0 -32 75 0
75 0 -2 343 -3 342 -72 3 -73 3 0 -122z m-59 -189 c48 -26 67 -145 34 -210
-38 -73 -134 -70 -169 5 -28 58 -19 146 19 185 31 32 78 40 116 20z"/>
<path d="M8393 7253 c9 -2 23 -2 30 0 6 3 -1 5 -18 5 -16 0 -22 -2 -12 -5z"/>
<path d="M8088 7233 c7 -3 16 -2 19 1 4 3 -2 6 -13 5 -11 0 -14 -3 -6 -6z"/>
<path d="M8378 7213 c12 -2 30 -2 40 0 9 3 -1 5 -23 4 -22 0 -30 -2 -17 -4z"/>
<path d="M8338 7173 c12 -2 30 -2 40 0 9 3 -1 5 -23 4 -22 0 -30 -2 -17 -4z"/>
<path d="M8328 7133 c7 -3 16 -2 19 1 4 3 -2 6 -13 5 -11 0 -14 -3 -6 -6z"/>
<path d="M8463 7095 c-93 -40 -152 -162 -140 -285 16 -153 101 -231 252 -231
107 0 182 38 221 113 27 51 21 58 -53 58 -59 0 -70 -3 -95 -27 -50 -48 -132
-31 -163 32 -8 18 -15 36 -15 39 0 3 78 7 173 8 l172 3 -3 67 c-6 156 -91 238
-244 238 -40 -1 -87 -7 -105 -15z m158 -115 c10 -6 26 -24 34 -40 l16 -30 -96
0 c-105 0 -113 6 -68 52 29 30 77 37 114 18z"/>
<path d="M9939 7083 c-57 -30 -85 -66 -91 -118 l-3 -30 63 -3 c59 -3 65 -1 92
28 21 23 37 30 64 30 43 0 79 -31 74 -63 -3 -20 -10 -23 -93 -28 -123 -9 -176
-34 -208 -96 -38 -73 -6 -167 68 -203 70 -34 163 -24 213 22 l22 21 0 -26 c0
-27 0 -27 75 -27 l75 0 0 195 c0 209 -4 227 -52 272 -39 37 -92 53 -171 53
-60 0 -83 -5 -128 -27z m201 -306 c0 -56 -74 -100 -130 -77 -51 21 -48 69 5
90 11 5 44 9 73 9 48 1 52 -1 52 -22z"/>
<path d="M10580 7089 c-19 -11 -41 -28 -47 -37 -11 -14 -13 -11 -13 16 l0 32
-75 0 -75 0 0 -255 0 -255 75 0 75 0 0 143 c0 205 17 247 101 247 29 0 43 -6
58 -26 19 -25 21 -40 21 -195 l0 -169 76 0 75 0 -3 209 c-3 233 -5 239 -78
289 -45 30 -140 31 -190 1z"/>
<path d="M8298 7093 c12 -2 30 -2 40 0 9 3 -1 5 -23 4 -22 0 -30 -2 -17 -4z"/>
<path d="M8842 7083 c3 -10 34 -125 68 -255 l63 -238 82 0 81 0 39 160 c22 88
42 154 46 148 3 -7 23 -79 44 -160 l38 -148 82 0 81 0 17 68 c22 90 103 394
112 421 6 21 5 22 -72 19 l-78 -3 -34 -169 -35 -170 -41 170 -40 169 -75 0
-75 0 -40 -170 -41 -170 -34 173 -34 172 -79 0 c-71 0 -79 -2 -75 -17z"/>
<path d="M8258 7053 c12 -2 30 -2 40 0 9 3 -1 5 -23 4 -22 0 -30 -2 -17 -4z"/>
<path d="M19882 6945 c-7 -14 -12 -55 -12 -91 0 -112 68 -212 136 -200 23 5
35 1 49 -14 41 -45 41 -19 -3 135 -36 128 -68 177 -128 189 -26 6 -32 3 -42
-19z"/>
<path d="M19142 6808 c6 -18 28 -21 28 -4 0 9 -7 16 -16 16 -9 0 -14 -5 -12
-12z"/>
<path d="M8033 6653 c9 -2 23 -2 30 0 6 3 -1 5 -18 5 -16 0 -22 -2 -12 -5z"/>
<path d="M8018 6613 c12 -2 30 -2 40 0 9 3 -1 5 -23 4 -22 0 -30 -2 -17 -4z"/>
<path d="M7993 6573 c9 -2 23 -2 30 0 6 3 -1 5 -18 5 -16 0 -22 -2 -12 -5z"/>
<path d="M7978 6533 c12 -2 30 -2 40 0 9 3 -1 5 -23 4 -22 0 -30 -2 -17 -4z"/>
<path d="M7938 6493 c12 -2 30 -2 40 0 9 3 -1 5 -23 4 -22 0 -30 -2 -17 -4z"/>
<path d="M7928 6453 c7 -3 16 -2 19 1 4 3 -2 6 -13 5 -11 0 -14 -3 -6 -6z"/>
<path d="M7898 6413 c12 -2 30 -2 40 0 9 3 -1 5 -23 4 -22 0 -30 -2 -17 -4z"/>
<path d="M18825 6401 c-40 -24 -65 -92 -51 -140 9 -30 8 -36 -11 -48 -21 -14
-21 -16 -7 -39 19 -28 12 -54 -14 -54 -20 0 -52 -29 -52 -48 0 -7 7 -12 15
-12 19 0 20 -34 1 -49 -23 -19 -26 -49 -5 -54 44 -12 -4 -50 -78 -62 -60 -11
-183 -76 -210 -112 -14 -18 -33 -33 -42 -33 -23 0 -58 -26 -48 -36 4 -4 30 3
57 16 39 18 53 21 62 12 7 -7 24 -12 39 -12 15 0 46 -9 70 -20 24 -11 36 -20
26 -20 -10 0 -28 -7 -41 -15 -13 -9 -47 -18 -75 -22 -52 -6 -68 -24 -33 -38
14 -6 12 -9 -13 -17 -16 -5 -46 -10 -65 -12 -19 -2 -46 -7 -60 -11 -20 -6 -17
-2 13 19 57 41 43 64 -19 31 -25 -13 -30 -13 -46 2 -16 14 -21 13 -60 -10 -24
-14 -52 -34 -62 -46 -11 -12 -24 -21 -31 -21 -6 0 -26 -16 -45 -35 -19 -19
-29 -35 -22 -35 6 0 54 23 106 50 52 28 105 50 117 50 l22 0 -23 -25 c-13 -14
-19 -25 -14 -25 14 0 83 25 90 33 10 10 52 9 58 -2 6 -9 -86 -51 -111 -51 -8
0 -28 -9 -44 -21 -35 -25 -42 -79 -10 -79 31 0 34 -18 6 -36 -34 -22 -21 -38
16 -19 34 18 51 12 47 -15 -2 -11 6 -25 16 -33 19 -14 18 -15 -14 -44 -42 -38
-22 -50 40 -22 44 20 70 24 70 12 -1 -15 -27 -43 -41 -43 -8 -1 -27 -12 -44
-25 -29 -24 -29 -25 -7 -25 22 0 23 -3 17 -42 -9 -54 -17 -64 -63 -79 -35 -11
-52 -25 -52 -41 0 -5 20 -8 45 -8 40 0 53 6 106 50 36 30 70 50 85 50 13 0 40
6 59 14 31 13 45 12 45 -4 0 -4 -18 -20 -40 -35 -32 -22 -38 -31 -29 -41 15
-18 34 -18 49 1 7 8 19 15 26 15 12 0 11 -5 -2 -25 -9 -14 -14 -34 -10 -48 3
-14 -2 -35 -13 -53 -20 -33 -98 -84 -128 -84 -10 0 -26 -8 -34 -17 -9 -10 -37
-37 -63 -60 l-48 -42 22 -31 c25 -36 56 -54 77 -46 8 3 23 1 33 -4 22 -12 50
-3 50 14 0 24 105 96 140 96 18 0 11 -39 -10 -50 -27 -15 -26 -40 3 -40 12 1
40 9 62 20 22 11 43 19 47 20 4 0 30 14 56 30 71 43 91 38 92 -23 1 -20 1 -21
11 -4 6 10 8 25 5 33 -9 25 9 57 35 60 13 1 49 10 79 19 30 9 87 22 125 29 79
13 171 54 283 123 l75 47 43 -49 c40 -46 45 -49 91 -50 26 0 51 -4 55 -10 4
-5 10 4 14 22 3 17 17 42 30 54 13 12 24 28 24 34 0 16 -33 45 -52 45 -27 0
-39 65 -17 87 16 16 4 41 -22 45 -12 2 -24 8 -26 14 -6 19 24 42 50 37 14 -3
29 2 36 11 8 9 22 16 31 16 35 0 50 12 69 56 16 36 17 48 8 69 -10 20 -18 25
-42 23 -21 -2 -31 -9 -33 -23 -4 -18 -38 -54 -54 -55 -3 0 1 26 9 57 20 79 14
194 -15 255 -12 26 -22 56 -22 68 0 42 -58 138 -102 168 -24 17 -62 50 -85 75
-24 25 -52 48 -63 52 -24 8 -25 14 -2 41 13 15 29 21 60 21 23 0 52 7 64 15
13 8 45 18 72 22 88 13 93 21 45 66 -22 20 -30 35 -26 49 7 28 -57 76 -87 65
-16 -6 -93 30 -117 55 -8 9 -14 22 -11 29 5 15 -8 15 -29 -1 -25 -19 -7 -50
50 -85 60 -37 131 -106 131 -127 0 -8 -12 -18 -27 -21 -16 -4 -34 -11 -40 -17
-9 -6 -18 -6 -27 2 -8 7 -36 11 -62 9 -46 -3 -47 -4 -30 -21 13 -13 27 -16 52
-11 22 4 34 2 34 -5 0 -6 -18 -11 -44 -11 -24 0 -60 -7 -80 -15 -27 -11 -54
-13 -107 -9 -71 7 -95 22 -70 47 21 21 12 37 -21 37 -47 0 -79 20 -101 62 -11
20 -27 38 -36 41 -12 3 -21 25 -30 73 -22 110 -34 121 -96 85z m-302 -887
c-15 -13 -41 -26 -58 -30 -16 -3 -34 -10 -40 -14 -5 -4 -29 -11 -52 -15 -91
-15 -32 29 97 73 69 24 93 18 53 -14z m67 -213 c0 -6 19 -11 43 -13 41 -4 41
-4 12 -12 -16 -4 -46 -16 -66 -27 -20 -10 -45 -19 -55 -19 -17 0 -17 1 1 13
17 13 16 14 -14 20 -57 12 -21 43 52 46 15 1 27 -3 27 -8z m82 -126 c-30 -25
-52 -32 -52 -17 0 10 51 41 68 42 8 0 0 -11 -16 -25z m-32 -340 c0 -12 -28
-35 -44 -35 -3 0 -6 11 -6 25 0 20 5 25 25 25 15 0 25 -6 25 -15z m164 -51
c-18 -14 -43 -23 -65 -24 -19 0 -44 -7 -55 -15 -10 -8 -27 -15 -38 -15 -16 0
-13 7 17 43 24 29 41 41 56 39 11 -2 28 1 38 6 10 6 27 6 46 0 l29 -11 -28
-23z"/>
<path d="M7888 6373 c7 -3 16 -2 19 1 4 3 -2 6 -13 5 -11 0 -14 -3 -6 -6z"/>
<path d="M8756 6329 c-32 -25 -37 -87 -8 -111 58 -52 142 -15 142 63 0 30 -44
69 -78 69 -16 0 -41 -9 -56 -21z"/>
<path d="M7858 6333 c12 -2 30 -2 40 0 9 3 -1 5 -23 4 -22 0 -30 -2 -17 -4z"/>
<path d="M7848 6313 c7 -3 16 -2 19 1 4 3 -2 6 -13 5 -11 0 -14 -3 -6 -6z"/>
<path d="M10650 6199 l0 -123 -27 26 c-69 66 -192 65 -267 -1 -52 -46 -82
-174 -65 -280 22 -139 85 -201 206 -201 60 0 84 9 126 48 l27 26 0 -32 0 -32
75 0 75 0 -2 343 -3 342 -72 3 -73 3 0 -122z m-59 -189 c48 -26 67 -145 34
-210 -38 -73 -134 -70 -169 5 -28 58 -19 146 19 185 31 32 78 40 116 20z"/>
<path d="M7848 6293 c7 -3 16 -2 19 1 4 3 -2 6 -13 5 -11 0 -14 -3 -6 -6z"/>
<path d="M8420 6205 l0 -65 -35 0 -35 0 0 -60 0 -60 35 0 35 0 0 -151 c0 -173
9 -205 66 -232 22 -11 60 -17 104 -17 l70 0 0 58 c0 58 0 59 -29 59 -56 0 -61
12 -61 154 l0 129 45 0 45 0 0 60 0 60 -45 0 -45 0 0 65 0 65 -75 0 -75 0 0
-65z"/>
<path d="M7818 6253 c12 -2 30 -2 40 0 9 3 -1 5 -23 4 -22 0 -30 -2 -17 -4z"/>
<path d="M7808 6233 c7 -3 16 -2 19 1 4 3 -2 6 -13 5 -11 0 -14 -3 -6 -6z"/>
<path d="M7778 6213 c12 -2 30 -2 40 0 9 3 -1 5 -23 4 -22 0 -30 -2 -17 -4z"/>
<path d="M7528 6173 c7 -3 16 -2 19 1 4 3 -2 6 -13 5 -11 0 -14 -3 -6 -6z"/>
<path d="M7773 6173 c9 -2 23 -2 30 0 6 3 -1 5 -18 5 -16 0 -22 -2 -12 -5z"/>
<path d="M7983 6139 c-18 -5 -47 -24 -66 -42 -41 -39 -56 -104 -37 -161 19
-59 45 -73 221 -121 66 -17 82 -40 49 -67 -35 -28 -86 -23 -122 12 -27 28 -35
30 -99 30 -76 0 -80 -4 -55 -63 31 -73 102 -109 217 -109 76 0 136 18 180 54
44 36 62 126 36 177 -21 41 -61 63 -168 90 -116 30 -140 49 -100 82 41 34 103
20 121 -27 9 -22 15 -24 74 -24 36 0 68 4 71 10 11 18 -14 86 -42 112 -44 42
-94 58 -175 57 -40 0 -87 -5 -105 -10z"/>
<path d="M9185 6138 c-11 -6 -30 -20 -42 -31 l-23 -20 0 26 c0 27 0 27 -75 27
l-75 0 0 -255 0 -255 75 0 75 0 0 164 c0 162 0 165 26 195 20 24 34 31 62 31
78 -1 91 -37 92 -247 l0 -143 76 0 75 0 -3 203 -3 204 -28 42 c-16 25 -43 49
-62 57 -41 17 -142 18 -170 2z"/>
<path d="M9634 6136 c-43 -19 -97 -87 -112 -140 -18 -71 -15 -167 8 -230 27
-72 72 -111 145 -126 66 -14 106 -7 158 26 l37 24 0 -33 c0 -43 -23 -74 -65
-86 -40 -11 -99 0 -124 23 -13 12 -38 16 -90 16 -70 0 -72 -1 -66 -22 26 -92
144 -148 278 -134 89 9 151 40 187 94 l30 45 0 274 0 273 -75 0 -75 0 0 -32
c0 -31 0 -32 -15 -12 -34 49 -151 70 -221 40z m185 -132 c68 -48 66 -194 -3
-239 -34 -22 -94 -14 -118 16 -46 55 -45 159 2 209 32 35 81 40 119 14z"/>
<path d="M11005 6131 c-114 -52 -168 -186 -131 -329 31 -122 111 -182 242
-182 91 0 148 23 196 79 44 51 58 98 58 193 0 60 -5 84 -26 126 -30 60 -79
104 -133 121 -57 17 -159 13 -206 -8z m175 -131 c52 -56 52 -179 0 -232 -38
-37 -79 -37 -122 1 -29 25 -32 35 -36 95 -5 75 8 117 46 146 37 30 79 26 112
-10z"/>
<path d="M11550 6139 c-76 -30 -130 -133 -130 -248 0 -86 23 -153 69 -201 63
-66 184 -75 263 -18 l28 19 0 -33 c0 -44 -23 -75 -65 -87 -40 -11 -99 0 -124
23 -13 12 -38 16 -90 16 -70 0 -72 -1 -66 -22 11 -35 53 -86 83 -102 111 -56
278 -41 356 32 53 50 56 68 56 357 l0 265 -75 0 -75 0 0 -32 c0 -27 -2 -30
-12 -16 -28 36 -82 58 -138 57 -30 0 -66 -5 -80 -10z m188 -141 c42 -46 54
-120 28 -182 -18 -42 -51 -66 -94 -66 -92 0 -135 169 -61 242 36 36 95 39 127
6z"/>
<path d="M12116 6135 c-141 -50 -148 -232 -11 -283 17 -6 61 -18 99 -27 77
-17 96 -28 96 -56 0 -24 -29 -39 -75 -39 -27 0 -44 8 -67 30 -27 28 -35 30
-100 30 l-70 0 7 -27 c13 -55 40 -88 94 -115 46 -24 67 -28 136 -28 143 0 225
61 225 167 0 80 -40 118 -150 143 -114 25 -130 31 -141 52 -10 18 -8 24 11 40
12 10 37 18 56 18 26 0 39 -7 60 -35 25 -33 30 -35 86 -35 67 0 76 10 59 63
-14 41 -54 81 -103 101 -46 20 -159 20 -212 1z"/>
<path d="M7738 6133 c12 -2 30 -2 40 0 9 3 -1 5 -23 4 -22 0 -30 -2 -17 -4z"/>
<path d="M8730 5885 l0 -255 75 0 75 0 0 255 0 255 -75 0 -75 0 0 -255z"/>
<path d="M19547 6053 c-16 -15 -5 -22 26 -16 47 8 57 23 16 23 -20 0 -39 -3
-42 -7z"/>
<path d="M7568 5813 c7 -3 16 -2 19 1 4 3 -2 6 -13 5 -11 0 -14 -3 -6 -6z"/>
<path d="M7538 5773 c12 -2 30 -2 40 0 9 3 -1 5 -23 4 -22 0 -30 -2 -17 -4z"/>
<path d="M19823 5660 c-52 -12 -63 -25 -50 -61 9 -22 9 -34 0 -48 -7 -11 -8
-23 -2 -32 5 -8 9 -24 9 -36 0 -30 34 -59 76 -66 55 -9 62 -3 56 56 -2 29 -9
57 -13 63 -5 6 -9 29 -8 50 1 22 1 44 0 51 -2 20 -34 30 -68 23z"/>
<path d="M7208 5613 c7 -3 16 -2 19 1 4 3 -2 6 -13 5 -11 0 -14 -3 -6 -6z"/>
<path d="M7453 5613 c9 -2 23 -2 30 0 6 3 -1 5 -18 5 -16 0 -22 -2 -12 -5z"/>
<path d="M7418 5573 c12 -2 30 -2 40 0 9 3 -1 5 -23 4 -22 0 -30 -2 -17 -4z"/>
<path d="M7378 5513 c12 -2 30 -2 40 0 9 3 -1 5 -23 4 -22 0 -30 -2 -17 -4z"/>
<path d="M7373 5473 c9 -2 23 -2 30 0 6 3 -1 5 -18 5 -16 0 -22 -2 -12 -5z"/>
<path d="M7338 5433 c12 -2 30 -2 40 0 9 3 -1 5 -23 4 -22 0 -30 -2 -17 -4z"/>
<path d="M7298 5393 c12 -2 30 -2 40 0 9 3 -1 5 -23 4 -22 0 -30 -2 -17 -4z"/>
<path d="M7048 5353 c7 -3 16 -2 19 1 4 3 -2 6 -13 5 -11 0 -14 -3 -6 -6z"/>
<path d="M7293 5352 c30 -12 21 -27 -20 -33 l-38 -6 36 -2 c34 -1 35 -3 36
-38 1 -21 1 -165 2 -320 l1 -283 80 0 c79 0 80 0 80 25 l0 25 20 -20 c29 -29
63 -40 126 -40 137 0 207 90 207 265 0 97 -21 165 -66 213 -63 67 -214 71
-268 6 -12 -15 -15 -4 -19 97 l-5 114 -95 2 c-52 1 -87 -1 -77 -5z m330 -312
c56 -45 63 -167 12 -220 -21 -22 -38 -30 -63 -30 -74 0 -106 48 -100 146 3 54
9 68 33 94 35 36 80 40 118 10z"/>
<path d="M7248 5273 c7 -3 16 -2 19 1 4 3 -2 6 -13 5 -11 0 -14 -3 -6 -6z"/>
<path d="M7218 5233 c12 -2 30 -2 40 0 9 3 -1 5 -23 4 -22 0 -30 -2 -17 -4z"/>
<path d="M7836 5158 c3 -13 44 -128 89 -256 l82 -233 -19 -24 c-16 -20 -29
-25 -64 -25 l-45 0 3 -57 3 -58 57 -3 c84 -4 136 13 184 62 38 38 47 61 130
306 49 146 92 275 96 288 6 23 6 23 -75 20 l-82 -3 -47 -173 c-25 -96 -48
-176 -50 -178 -3 -2 -26 77 -53 176 l-48 180 -84 0 c-83 0 -84 0 -77 -22z"/>
<path d="M6888 5133 c7 -3 16 -2 19 1 4 3 -2 6 -13 5 -11 0 -14 -3 -6 -6z"/>
<path d="M19718 4962 c-14 -15 -31 -43 -38 -62 -8 -19 -30 -50 -49 -67 -31
-29 -42 -33 -90 -33 -82 0 -100 -8 -117 -49 -17 -40 -12 -90 13 -128 14 -20
14 -30 3 -62 -7 -21 -9 -48 -5 -60 4 -15 2 -21 -8 -21 -8 0 -20 -6 -26 -14
-19 -23 5 -101 35 -115 13 -6 24 -16 24 -22 0 -8 17 -10 59 -5 l59 7 7 -31 c5
-22 14 -32 33 -36 34 -8 53 -23 46 -36 -3 -5 1 -17 9 -26 20 -23 32 -109 17
-127 -13 -16 -3 -107 15 -132 13 -17 14 -17 36 2 l22 20 -6 -25 c-3 -14 -2
-34 3 -45 l8 -20 8 20 c8 21 53 65 67 65 10 0 9 44 -3 75 -8 20 -6 35 5 58 10
21 16 73 19 150 2 65 6 121 9 124 11 10 25 -7 31 -40 3 -19 17 -44 31 -57 14
-13 25 -31 25 -41 0 -18 46 -39 86 -39 25 0 48 -28 84 -103 18 -38 21 -58 16
-94 -4 -30 -2 -51 6 -60 7 -8 13 -38 14 -66 1 -29 8 -72 14 -97 6 -25 15 -68
19 -97 4 -29 9 -54 11 -56 57 -43 111 -77 124 -77 10 0 15 4 12 9 -14 23 35
-4 65 -36 33 -33 33 -35 15 -49 -19 -14 -19 -14 1 -36 12 -13 24 -38 28 -55 3
-18 11 -33 16 -33 16 0 31 -51 19 -65 -7 -8 -7 -21 -1 -37 5 -13 7 -35 4 -49
-5 -27 48 -99 73 -99 8 0 14 -10 14 -25 0 -14 6 -25 13 -25 11 0 14 28 15 128
0 95 4 134 16 157 9 17 16 38 16 47 0 9 9 18 22 20 39 6 58 58 56 157 -1 69 2
95 15 115 21 31 21 50 3 79 -27 41 -86 238 -86 287 0 45 -2 48 -32 56 -28 8
-34 16 -40 49 -15 85 -21 105 -29 111 -5 3 -9 13 -9 23 0 21 -36 97 -50 106
-5 3 -10 18 -10 32 0 15 -7 33 -15 42 -36 38 -85 104 -85 114 -1 17 -69 63
-105 71 -16 4 -47 11 -68 15 -21 5 -44 14 -50 20 -6 6 -18 11 -28 11 -9 0 -34
13 -55 30 -22 16 -56 42 -78 57 -21 15 -80 69 -130 118 -50 50 -98 94 -107 97
-11 4 -26 -3 -41 -20z m62 -682 c0 -5 -4 -10 -10 -10 -5 0 -10 5 -10 10 0 6 5
10 10 10 6 0 10 -4 10 -10z m876 -835 c5 -12 10 -13 20 -4 11 9 14 7 14 -9 0
-13 -8 -21 -25 -24 -30 -6 -35 -2 -35 29 0 26 17 31 26 8z m-57 -207 c-1 -31
-1 -31 -8 -8 -5 14 -6 28 -4 33 9 15 13 6 12 -25z"/>
<path d="M8350 4800 c-29 -29 -27 -90 3 -118 54 -51 137 -13 137 61 0 50 -28
77 -80 77 -27 0 -47 -7 -60 -20z"/>
<path d="M6888 4653 c7 -3 16 -2 19 1 4 3 -2 6 -13 5 -11 0 -14 -3 -6 -6z"/>
<path d="M6888 4633 c7 -3 16 -2 19 1 4 3 -2 6 -13 5 -11 0 -14 -3 -6 -6z"/>
<path d="M19351 4626 c-10 -12 -8 -17 8 -25 28 -16 33 -14 29 11 -4 27 -21 33
-37 14z"/>
<path d="M18442 4622 c-20 -2 -32 -8 -29 -15 6 -18 29 -19 51 -2 24 18 20 21
-22 17z"/>
<path d="M6858 4593 c12 -2 30 -2 40 0 9 3 -1 5 -23 4 -22 0 -30 -2 -17 -4z"/>
<path d="M6848 4573 c7 -3 16 -2 19 1 4 3 -2 6 -13 5 -11 0 -14 -3 -6 -6z"/>
<path d="M6833 4553 c9 -2 23 -2 30 0 6 3 -1 5 -18 5 -16 0 -22 -2 -12 -5z"/>
<path d="M6568 4513 c7 -3 16 -2 19 1 4 3 -2 6 -13 5 -11 0 -14 -3 -6 -6z"/>
<path d="M6813 4513 c9 -2 23 -2 30 0 6 3 -1 5 -18 5 -16 0 -22 -2 -12 -5z"/>
<path d="M6808 4493 c7 -3 16 -2 19 1 4 3 -2 6 -13 5 -11 0 -14 -3 -6 -6z"/>
<path d="M6778 4473 c12 -2 30 -2 40 0 9 3 -1 5 -23 4 -22 0 -30 -2 -17 -4z"/>
<path d="M6753 4433 c9 -2 23 -2 30 0 6 3 -1 5 -18 5 -16 0 -22 -2 -12 -5z"/>
<path d="M6488 4393 c7 -3 16 -2 19 1 4 3 -2 6 -13 5 -11 0 -14 -3 -6 -6z"/>
<path d="M6738 4393 c12 -2 30 -2 40 0 9 3 -1 5 -23 4 -22 0 -30 -2 -17 -4z"/>
<path d="M6713 4353 c9 -2 23 -2 30 0 6 3 -1 5 -18 5 -16 0 -22 -2 -12 -5z"/>
<path d="M6693 4313 c9 -2 23 -2 30 0 6 3 -1 5 -18 5 -16 0 -22 -2 -12 -5z"/>
<path d="M6658 4273 c12 -2 30 -2 40 0 9 3 -1 5 -23 4 -22 0 -30 -2 -17 -4z"/>
<path d="M6648 4233 c7 -3 16 -2 19 1 4 3 -2 6 -13 5 -11 0 -14 -3 -6 -6z"/>
<path d="M20010 4040 c-8 -16 -8 -31 1 -58 22 -69 43 -66 65 8 12 39 11 41
-16 55 -37 19 -37 19 -50 -5z"/>
<path d="M5960 3890 c-11 -11 -20 -29 -20 -40 0 -30 42 -10 57 29 11 27 11 31
-2 31 -8 0 -24 -9 -35 -20z"/>
<path d="M7230 3751 c0 -145 1 -151 20 -151 20 0 20 5 18 147 -3 131 -5 148
-20 151 -17 3 -18 -9 -18 -147z"/>
<path d="M7890 3846 l0 -56 -35 17 c-32 15 -38 15 -69 0 -60 -28 -74 -131 -25
-183 27 -29 83 -32 111 -7 17 15 18 15 18 0 0 -10 8 -17 20 -17 20 0 20 5 18
147 -3 131 -5 148 -20 151 -15 3 -18 -5 -18 -52z m-14 -101 c16 -40 11 -76
-16 -100 -43 -38 -101 19 -85 82 10 40 24 53 57 53 24 0 32 -6 44 -35z"/>
<path d="M6228 3884 c-5 -4 -8 -70 -8 -146 l0 -138 65 0 c117 0 168 41 169
135 1 65 -19 112 -58 132 -33 17 -156 30 -168 17z m142 -49 c58 -30 62 -141 7
-180 -12 -8 -43 -15 -69 -15 l-48 0 0 105 0 105 40 0 c23 0 54 -7 70 -15z"/>
<path d="M5829 3796 c-10 -17 -19 -47 -19 -66 0 -39 31 -113 51 -126 7 -4 46
-9 86 -9 76 -2 86 3 112 53 10 19 9 27 -8 49 -26 32 -27 60 -4 86 17 18 17 19
0 32 -11 8 -50 13 -108 13 l-91 0 -19 -32z"/>
<path d="M6553 3813 c-71 -14 -87 -152 -24 -200 17 -13 79 -17 106 -7 46 18
61 135 23 178 -24 25 -66 37 -105 29z m71 -49 c35 -35 11 -134 -33 -134 -36 0
-61 30 -61 72 0 67 54 103 94 62z"/>
<path d="M7080 3813 c-8 -3 -18 -11 -22 -17 -5 -8 -8 -7 -8 2 0 6 -9 12 -20
12 -19 0 -20 -7 -20 -105 0 -98 1 -105 20 -105 18 0 20 7 20 78 0 82 9 102 45
102 36 0 45 -20 45 -102 0 -71 2 -78 20 -78 18 0 20 7 20 88 0 72 -3 92 -17
105 -21 18 -62 28 -83 20z"/>
<path d="M7363 3810 c-59 -24 -77 -137 -28 -185 18 -19 35 -25 69 -25 37 0 48
5 70 31 48 56 28 156 -35 178 -37 13 -46 13 -76 1z m79 -47 c25 -23 24 -87 -2
-113 -48 -48 -96 -7 -91 77 2 47 57 69 93 36z"/>
<path d="M7574 3806 c-17 -8 -34 -21 -37 -30 -9 -23 19 -32 38 -12 19 19 56
21 73 4 23 -23 12 -36 -39 -43 -63 -9 -94 -35 -84 -73 3 -15 13 -33 22 -39 20
-16 67 -17 94 -3 13 7 19 7 19 0 0 -5 9 -10 20 -10 18 0 20 7 20 84 0 65 -4
88 -17 105 -23 27 -70 35 -109 17z m86 -121 c0 -21 -36 -55 -59 -55 -28 0 -47
26 -31 44 10 13 28 19 78 25 6 0 12 -6 12 -14z"/>
<path d="M6700 3801 c0 -6 12 -54 26 -106 22 -77 30 -95 46 -95 10 0 21 6 23
13 2 6 13 41 23 77 l19 65 23 -78 c20 -66 26 -78 43 -75 17 2 26 22 48 103 16
55 29 101 29 103 0 1 -9 2 -19 2 -21 0 -23 -4 -42 -93 -7 -32 -15 -54 -19 -50
-4 4 -15 39 -25 76 -16 58 -21 68 -38 65 -16 -2 -25 -18 -40 -76 -11 -40 -22
-70 -24 -68 -3 3 -13 35 -22 73 -12 47 -22 69 -34 71 -9 2 -17 -1 -17 -7z"/>
<path d="M18624 3752 c3 -69 8 -78 40 -84 30 -6 46 8 46 38 0 13 5 26 10 29 6
3 10 17 10 30 0 25 -7 29 -72 39 l-36 7 2 -59z"/>
<path d="M19752 3700 c-7 -11 -19 -20 -27 -20 -8 0 -19 -9 -25 -19 -5 -11 -33
-26 -62 -35 -61 -18 -72 -25 -81 -48 -3 -9 -28 -29 -54 -43 -26 -15 -64 -36
-84 -47 -46 -27 -66 -19 -74 29 -12 72 -16 84 -26 78 -5 -4 -21 1 -36 10 -21
14 -27 15 -34 4 -5 -8 -9 -20 -9 -26 0 -7 -8 -13 -18 -13 -11 0 -24 -11 -30
-25 -9 -19 -19 -25 -45 -25 -31 0 -57 -14 -57 -32 0 -4 7 -8 15 -8 9 0 15 -9
15 -25 0 -20 -6 -25 -35 -31 -39 -7 -41 -11 -21 -37 10 -13 21 -16 39 -12 20
5 27 2 32 -15 4 -13 18 -23 37 -27 16 -3 32 -13 36 -22 9 -25 20 -29 62 -21
l39 7 -16 -23 c-14 -23 -14 -24 12 -34 36 -14 62 -13 77 4 7 8 19 10 28 6 8
-5 34 -14 57 -20 49 -15 58 -10 135 61 34 33 53 43 72 41 20 -3 27 2 32 22 3
14 12 30 20 37 18 15 18 33 -2 75 -16 32 -15 37 0 72 24 51 62 96 75 88 6 -4
11 -23 11 -42 0 -27 4 -34 19 -34 27 0 39 20 39 62 0 28 -5 39 -19 43 -11 4
-26 2 -33 -4 -10 -9 -16 -5 -26 18 -6 16 -9 35 -5 40 3 6 0 11 -7 11 -7 0 -19
-9 -26 -20z m-390 -348 c9 -9 6 -12 -14 -12 -14 0 -30 6 -36 13 -8 10 -5 12
14 12 13 -1 30 -7 36 -13z"/>
<path d="M19055 3650 c-4 -7 -3 -16 3 -22 14 -14 65 -1 59 15 -5 16 -53 21
-62 7z"/>
<path d="M18606 3344 c-20 -19 -20 -27 0 -132 13 -69 14 -99 5 -165 -6 -45
-15 -85 -20 -90 -5 -5 -26 -11 -47 -14 -36 -5 -41 -9 -72 -69 -37 -74 -40
-118 -13 -189 54 -144 57 -146 106 -47 21 42 54 98 72 124 19 27 45 74 57 105
18 49 27 60 55 69 18 6 38 18 43 27 9 17 38 24 38 10 0 -14 61 -43 90 -43 15
0 33 7 40 15 15 19 17 82 3 96 -11 11 -90 36 -145 46 -27 5 -29 8 -33 64 0 9
-5 23 -11 30 -6 8 -19 36 -28 62 -20 54 -77 117 -106 117 -10 0 -26 -7 -34
-16z"/>
<path d="M6058 3233 c12 -2 30 -2 40 0 9 3 -1 5 -23 4 -22 0 -30 -2 -17 -4z"/>
<path d="M6048 3193 c7 -3 16 -2 19 1 4 3 -2 6 -13 5 -11 0 -14 -3 -6 -6z"/>
<path d="M6018 3153 c12 -2 30 -2 40 0 9 3 -1 5 -23 4 -22 0 -30 -2 -17 -4z"/>
<path d="M18817 3153 c-4 -3 -2 -14 4 -24 10 -20 59 -27 59 -9 0 12 -55 41
-63 33z"/>
<path d="M6008 3113 c7 -3 16 -2 19 1 4 3 -2 6 -13 5 -11 0 -14 -3 -6 -6z"/>
<path d="M5978 3073 c12 -2 30 -2 40 0 9 3 -1 5 -23 4 -22 0 -30 -2 -17 -4z"/>
<path d="M5688 3053 c7 -3 16 -2 19 1 4 3 -2 6 -13 5 -11 0 -14 -3 -6 -6z"/>
<path d="M5968 3053 c7 -3 16 -2 19 1 4 3 -2 6 -13 5 -11 0 -14 -3 -6 -6z"/>
<path d="M5953 3033 c9 -2 23 -2 30 0 6 3 -1 5 -18 5 -16 0 -22 -2 -12 -5z"/>
<path d="M5938 2993 c12 -2 30 -2 40 0 9 3 -1 5 -23 4 -22 0 -30 -2 -17 -4z"/>
<path d="M5928 2973 c7 -3 16 -2 19 1 4 3 -2 6 -13 5 -11 0 -14 -3 -6 -6z"/>
<path d="M18300 2972 c0 -6 -6 -9 -14 -6 -24 9 -29 -17 -8 -39 l21 -20 12 27
c10 20 10 29 1 38 -9 9 -12 9 -12 0z"/>
<path d="M5898 2953 c12 -2 30 -2 40 0 9 3 -1 5 -23 4 -22 0 -30 -2 -17 -4z"/>
<path d="M5608 2933 c7 -3 16 -2 19 1 4 3 -2 6 -13 5 -11 0 -14 -3 -6 -6z"/>
<path d="M5888 2913 c7 -3 16 -2 19 1 4 3 -2 6 -13 5 -11 0 -14 -3 -6 -6z"/>
<path d="M5858 2873 c12 -2 30 -2 40 0 9 3 -1 5 -23 4 -22 0 -30 -2 -17 -4z"/>
<path d="M5833 2833 c9 -2 23 -2 30 0 6 3 -1 5 -18 5 -16 0 -22 -2 -12 -5z"/>
<path d="M5818 2793 c12 -2 30 -2 40 0 9 3 -1 5 -23 4 -22 0 -30 -2 -17 -4z"/>
<path d="M5778 2753 c12 -2 30 -2 40 0 9 3 -1 5 -23 4 -22 0 -30 -2 -17 -4z"/>
<path d="M5773 2713 c9 -2 23 -2 30 0 6 3 -1 5 -18 5 -16 0 -22 -2 -12 -5z"/>
<path d="M5738 2673 c12 -2 30 -2 40 0 9 3 -1 5 -23 4 -22 0 -30 -2 -17 -4z"/>
<path d="M5728 2633 c7 -3 16 -2 19 1 4 3 -2 6 -13 5 -11 0 -14 -3 -6 -6z"/>
<path d="M5698 2593 c12 -2 30 -2 40 0 9 3 -1 5 -23 4 -22 0 -30 -2 -17 -4z"/>
<path d="M5688 2573 c7 -3 16 -2 19 1 4 3 -2 6 -13 5 -11 0 -14 -3 -6 -6z"/>
<path d="M5688 2553 c7 -3 16 -2 19 1 4 3 -2 6 -13 5 -11 0 -14 -3 -6 -6z"/>
<path d="M5658 2513 c12 -2 30 -2 40 0 9 3 -1 5 -23 4 -22 0 -30 -2 -17 -4z"/>
<path d="M5648 2493 c7 -3 16 -2 19 1 4 3 -2 6 -13 5 -11 0 -14 -3 -6 -6z"/>
<path d="M20954 2476 c-3 -9 -21 -18 -39 -22 -34 -6 -70 -39 -85 -79 -5 -12
-24 -30 -42 -39 -32 -16 -34 -16 -47 3 -7 12 -20 21 -27 21 -8 0 -31 15 -51
34 -43 37 -67 41 -103 16 -38 -27 -133 -36 -162 -16 -12 9 -33 16 -47 16 -13
0 -33 7 -43 17 -15 14 -22 14 -42 3 -20 -10 -29 -10 -55 6 -31 18 -31 18 -49
-6 -9 -14 -19 -36 -22 -50 -3 -16 -22 -36 -52 -55 -38 -24 -48 -36 -48 -57 0
-18 -8 -31 -22 -39 -19 -10 -24 -8 -41 15 -10 14 -27 26 -38 26 -10 0 -19 7
-19 15 0 17 -16 20 -25 5 -3 -5 -21 -10 -40 -10 -39 0 -47 -14 -34 -66 15 -65
11 -119 -9 -137 -38 -34 -74 -10 -86 55 -7 38 -23 58 -35 42 -3 -5 -23 -18
-43 -28 l-37 -19 6 -58 c5 -49 2 -62 -16 -88 -16 -22 -31 -31 -49 -31 -32 0
-92 34 -92 52 -1 24 -69 88 -95 88 -20 0 -25 6 -30 34 -5 26 -13 35 -32 39
-30 5 -40 -15 -25 -46 16 -32 52 -182 52 -214 0 -27 -3 -29 -42 -29 -24 0
-172 -2 -331 -4 l-287 -4 -92 97 c-84 89 -94 97 -129 97 -41 0 -69 -20 -69
-50 0 -28 -11 -31 -118 -35 -53 -1 -110 -8 -127 -15 -35 -14 -295 -32 -338
-23 -16 3 -50 26 -75 51 l-46 44 -63 -6 c-35 -4 -75 -11 -89 -16 -14 -6 -43
-10 -65 -10 -50 0 -190 -23 -344 -56 -273 -59 -416 -80 -530 -79 l-60 0 -5 40
c-9 70 -20 -98 -20 -313 l0 -195 44 -43 43 -44 2607 0 2606 0 39 39 c26 26 42
53 47 77 9 50 -5 504 -16 524 -7 11 -9 5 -10 -22 l0 -38 -79 0 c-44 0 -82 -4
-85 -8 -2 -4 -82 -7 -178 -5 -95 1 -196 2 -223 3 l-50 0 -33 59 c-24 45 -35
83 -48 167 -9 60 -27 135 -41 167 -13 31 -21 61 -18 67 8 12 -73 100 -92 100
-8 0 -12 3 -10 8 3 4 -6 15 -19 25 -21 16 -25 16 -30 3z"/>
<path d="M5618 2473 c12 -2 30 -2 40 0 9 3 -1 5 -23 4 -22 0 -30 -2 -17 -4z"/>
<path d="M5368 2433 c7 -3 16 -2 19 1 4 3 -2 6 -13 5 -11 0 -14 -3 -6 -6z"/>
<path d="M5613 2433 c9 -2 23 -2 30 0 6 3 -1 5 -18 5 -16 0 -22 -2 -12 -5z"/>
<path d="M5608 2413 c7 -3 16 -2 19 1 4 3 -2 6 -13 5 -11 0 -14 -3 -6 -6z"/>
<path d="M5578 2393 c12 -2 30 -2 40 0 9 3 -1 5 -23 4 -22 0 -30 -2 -17 -4z"/>
<path d="M5553 2353 c9 -2 23 -2 30 0 6 3 -1 5 -18 5 -16 0 -22 -2 -12 -5z"/>
<path d="M5288 2313 c7 -3 16 -2 19 1 4 3 -2 6 -13 5 -11 0 -14 -3 -6 -6z"/>
<path d="M5538 2313 c12 -2 30 -2 40 0 9 3 -1 5 -23 4 -22 0 -30 -2 -17 -4z"/>
<path d="M5513 2273 c9 -2 23 -2 30 0 6 3 -1 5 -18 5 -16 0 -22 -2 -12 -5z"/>
<path d="M5488 2233 c7 -3 16 -2 19 1 4 3 -2 6 -13 5 -11 0 -14 -3 -6 -6z"/>
<path d="M5458 2193 c12 -2 30 -2 40 0 9 3 -1 5 -23 4 -22 0 -30 -2 -17 -4z"/>
<path d="M5448 2153 c7 -3 16 -2 19 1 4 3 -2 6 -13 5 -11 0 -14 -3 -6 -6z"/>
<path d="M19390 2130 c-19 -15 -21 -20 -9 -20 16 0 46 27 38 35 -2 2 -15 -5
-29 -15z"/>
<path d="M5418 2113 c12 -2 30 -2 40 0 9 3 -1 5 -23 4 -22 0 -30 -2 -17 -4z"/>
<path d="M5408 2073 c7 -3 16 -2 19 1 4 3 -2 6 -13 5 -11 0 -14 -3 -6 -6z"/>
<path d="M5368 2013 c7 -3 16 -2 19 1 4 3 -2 6 -13 5 -11 0 -14 -3 -6 -6z"/>
<path d="M5338 1973 c12 -2 30 -2 40 0 9 3 -1 5 -23 4 -22 0 -30 -2 -17 -4z"/>
<path d="M5048 1953 c7 -3 16 -2 19 1 4 3 -2 6 -13 5 -11 0 -14 -3 -6 -6z"/>
<path d="M5328 1933 c7 -3 16 -2 19 1 4 3 -2 6 -13 5 -11 0 -14 -3 -6 -6z"/>
<path d="M5298 1893 c12 -2 30 -2 40 0 9 3 -1 5 -23 4 -22 0 -30 -2 -17 -4z"/>
<path d="M5288 1873 c7 -3 16 -2 19 1 4 3 -2 6 -13 5 -11 0 -14 -3 -6 -6z"/>
<path d="M5273 1853 c9 -2 23 -2 30 0 6 3 -1 5 -18 5 -16 0 -22 -2 -12 -5z"/>
<path d="M5258 1813 c12 -2 30 -2 40 0 9 3 -1 5 -23 4 -22 0 -30 -2 -17 -4z"/>
<path d="M5218 1773 c12 -2 30 -2 40 0 9 3 -1 5 -23 4 -22 0 -30 -2 -17 -4z"/>
<path d="M4968 1733 c7 -3 16 -2 19 1 4 3 -2 6 -13 5 -11 0 -14 -3 -6 -6z"/>
<path d="M5213 1733 c9 -2 23 -2 30 0 6 3 -1 5 -18 5 -16 0 -22 -2 -12 -5z"/>
<path d="M5178 1693 c12 -2 30 -2 40 0 9 3 -1 5 -23 4 -22 0 -30 -2 -17 -4z"/>
<path d="M5138 1653 c12 -2 30 -2 40 0 9 3 -1 5 -23 4 -22 0 -30 -2 -17 -4z"/>
<path d="M4888 1613 c7 -3 16 -2 19 1 4 3 -2 6 -13 5 -11 0 -14 -3 -6 -6z"/>
<path d="M5133 1613 c9 -2 23 -2 30 0 6 3 -1 5 -18 5 -16 0 -22 -2 -12 -5z"/>
<path d="M5098 1573 c12 -2 30 -2 40 0 9 3 -1 5 -23 4 -22 0 -30 -2 -17 -4z"/>
<path d="M5088 1533 c7 -3 16 -2 19 1 4 3 -2 6 -13 5 -11 0 -14 -3 -6 -6z"/>
<path d="M5058 1493 c12 -2 30 -2 40 0 9 3 -1 5 -23 4 -22 0 -30 -2 -17 -4z"/>
<path d="M5048 1453 c7 -3 16 -2 19 1 4 3 -2 6 -13 5 -11 0 -14 -3 -6 -6z"/>
<path d="M5018 1413 c12 -2 30 -2 40 0 9 3 -1 5 -23 4 -22 0 -30 -2 -17 -4z"/>
<path d="M4728 1393 c7 -3 16 -2 19 1 4 3 -2 6 -13 5 -11 0 -14 -3 -6 -6z"/>
<path d="M5008 1393 c7 -3 16 -2 19 1 4 3 -2 6 -13 5 -11 0 -14 -3 -6 -6z"/>
<path d="M4993 1373 c9 -2 23 -2 30 0 6 3 -1 5 -18 5 -16 0 -22 -2 -12 -5z"/>
<path d="M4978 1333 c12 -2 30 -2 40 0 9 3 -1 5 -23 4 -22 0 -30 -2 -17 -4z"/>
<path d="M4968 1313 c7 -3 16 -2 19 1 4 3 -2 6 -13 5 -11 0 -14 -3 -6 -6z"/>
<path d="M4953 1293 c9 -2 23 -2 30 0 6 3 -1 5 -18 5 -16 0 -22 -2 -12 -5z"/>
<path d="M4648 1273 c7 -3 16 -2 19 1 4 3 -2 6 -13 5 -11 0 -14 -3 -6 -6z"/>
<path d="M4933 1253 c9 -2 23 -2 30 0 6 3 -1 5 -18 5 -16 0 -22 -2 -12 -5z"/>
<path d="M4898 1213 c12 -2 30 -2 40 0 9 3 -1 5 -23 4 -22 0 -30 -2 -17 -4z"/>
<path d="M4873 1173 c9 -2 23 -2 30 0 6 3 -1 5 -18 5 -16 0 -22 -2 -12 -5z"/>
<path d="M4858 1133 c12 -2 30 -2 40 0 9 3 -1 5 -23 4 -22 0 -30 -2 -17 -4z"/>
<path d="M4818 1093 c12 -2 30 -2 40 0 9 3 -1 5 -23 4 -22 0 -30 -2 -17 -4z"/>
<path d="M4813 1053 c9 -2 23 -2 30 0 6 3 -1 5 -18 5 -16 0 -22 -2 -12 -5z"/>
<path d="M4778 1013 c12 -2 30 -2 40 0 9 3 -1 5 -23 4 -22 0 -30 -2 -17 -4z"/>
<path d="M4768 973 c7 -3 16 -2 19 1 4 3 -2 6 -13 5 -11 0 -14 -3 -6 -6z"/>
<path d="M4738 933 c12 -2 30 -2 40 0 9 3 -1 5 -23 4 -22 0 -30 -2 -17 -4z"/>
<path d="M4728 913 c7 -3 16 -2 19 1 4 3 -2 6 -13 5 -11 0 -14 -3 -6 -6z"/>
<path d="M4728 893 c7 -3 16 -2 19 1 4 3 -2 6 -13 5 -11 0 -14 -3 -6 -6z"/>
<path d="M4698 853 c12 -2 30 -2 40 0 9 3 -1 5 -23 4 -22 0 -30 -2 -17 -4z"/>
<path d="M4688 833 c7 -3 16 -2 19 1 4 3 -2 6 -13 5 -11 0 -14 -3 -6 -6z"/>
<path d="M4673 813 c9 -2 23 -2 30 0 6 3 -1 5 -18 5 -16 0 -22 -2 -12 -5z"/>
<path d="M18197 765 c-32 -30 -60 -55 -63 -55 -2 0 -28 23 -57 50 -56 54 -90
62 -95 23 -4 -26 60 -81 121 -103 22 -8 39 -19 38 -24 -2 -5 11 -18 28 -28 17
-11 31 -23 31 -27 0 -18 -14 -18 -33 0 -23 21 -33 24 -42 9 -3 -5 1 -10 9 -10
8 0 35 -19 59 -43 24 -24 52 -47 62 -50 17 -7 45 8 45 24 0 10 -91 99 -102 99
-25 0 -1 42 47 84 55 47 66 71 43 94 -19 19 -30 15 -91 -43z m26 -199 c4 -10
1 -13 -9 -9 -15 6 -19 23 -5 23 5 0 11 -7 14 -14z"/>
<path d="M19172 757 l-63 -63 26 -24 c27 -26 31 -50 14 -98 -19 -54 -6 -52 59
6 57 53 76 82 52 82 -22 0 -40 46 -31 76 16 51 22 84 13 84 -4 0 -36 -28 -70
-63z"/>
<path d="M4653 773 c9 -2 23 -2 30 0 6 3 -1 5 -18 5 -16 0 -22 -2 -12 -5z"/>
<path d="M4648 753 c7 -3 16 -2 19 1 4 3 -2 6 -13 5 -11 0 -14 -3 -6 -6z"/>
<path d="M4618 733 c12 -2 30 -2 40 0 9 3 -1 5 -23 4 -22 0 -30 -2 -17 -4z"/>
<path d="M4593 693 c9 -2 23 -2 30 0 6 3 -1 5 -18 5 -16 0 -22 -2 -12 -5z"/>
<path d="M4578 653 c12 -2 30 -2 40 0 9 3 -1 5 -23 4 -22 0 -30 -2 -17 -4z"/>
<path d="M4553 613 c9 -2 23 -2 30 0 6 3 -1 5 -18 5 -16 0 -22 -2 -12 -5z"/>
<path d="M4533 573 c9 -2 23 -2 30 0 6 3 -1 5 -18 5 -16 0 -22 -2 -12 -5z"/>
<path d="M4498 533 c12 -2 30 -2 40 0 9 3 -1 5 -23 4 -22 0 -30 -2 -17 -4z"/>
<path d="M4488 493 c7 -3 16 -2 19 1 4 3 -2 6 -13 5 -11 0 -14 -3 -6 -6z"/>
<path d="M4458 453 c12 -2 30 -2 40 0 9 3 -1 5 -23 4 -22 0 -30 -2 -17 -4z"/>
<path d="M4448 413 c7 -3 16 -2 19 1 4 3 -2 6 -13 5 -11 0 -14 -3 -6 -6z"/>
<path d="M4418 373 c12 -2 30 -2 40 0 9 3 -1 5 -23 4 -22 0 -30 -2 -17 -4z"/>
<path d="M4408 353 c7 -3 16 -2 19 1 4 3 -2 6 -13 5 -11 0 -14 -3 -6 -6z"/>
<path d="M4408 333 c7 -3 16 -2 19 1 4 3 -2 6 -13 5 -11 0 -14 -3 -6 -6z"/>
<path d="M4378 293 c12 -2 30 -2 40 0 9 3 -1 5 -23 4 -22 0 -30 -2 -17 -4z"/>
<path d="M4368 273 c7 -3 16 -2 19 1 4 3 -2 6 -13 5 -11 0 -14 -3 -6 -6z"/>
<path d="M4338 253 c12 -2 30 -2 40 0 9 3 -1 5 -23 4 -22 0 -30 -2 -17 -4z"/>
<path d="M4088 213 c7 -3 16 -2 19 1 4 3 -2 6 -13 5 -11 0 -14 -3 -6 -6z"/>
<path d="M4333 213 c9 -2 23 -2 30 0 6 3 -1 5 -18 5 -16 0 -22 -2 -12 -5z"/>
<path d="M4298 173 c12 -2 30 -2 40 0 9 3 -1 5 -23 4 -22 0 -30 -2 -17 -4z"/>
<path d="M4273 133 c9 -2 23 -2 30 0 6 3 -1 5 -18 5 -16 0 -22 -2 -12 -5z"/>
<path d="M4008 93 c7 -3 16 -2 19 1 4 3 -2 6 -13 5 -11 0 -14 -3 -6 -6z"/>
<path d="M4253 93 c9 -2 23 -2 30 0 6 3 -1 5 -18 5 -16 0 -22 -2 -12 -5z"/>
</g>
</svg>
